<svg xmlns="http://www.w3.org/2000/svg" xmlns:xlink="http://www.w3.org/1999/xlink" width="500" zoomAndPan="magnify" viewBox="0 0 375 374.999991" height="500" preserveAspectRatio="xMidYMid meet" version="1.0"><defs><clipPath id="4778a0625f"><path d="M 344 92 L 360.996094 92 L 360.996094 104 L 344 104 Z M 344 92 " clip-rule="nonzero"/></clipPath><clipPath id="25c33af0df"><path d="M 265 13.746094 L 278 13.746094 L 278 31 L 265 31 Z M 265 13.746094 " clip-rule="nonzero"/></clipPath><clipPath id="5def842f78"><path d="M 13.746094 154 L 104 154 L 104 360.996094 L 13.746094 360.996094 Z M 13.746094 154 " clip-rule="nonzero"/></clipPath></defs><path fill="#fefce8" d="M 305.195312 181.890625 L 305.195312 171.039062 C 305.195312 163.03125 308.183594 155.625 313.390625 150.722656 C 325.988281 138.863281 333.21875 122.058594 333.21875 104.617188 C 333.21875 86.515625 325.550781 69.28125 312.191406 57.335938 C 299.019531 45.570312 282.125 40.191406 264.550781 42.164062 C 235.871094 45.402344 213.023438 69.023438 210.222656 98.328125 C 208.34375 117.96875 215.335938 136.945312 229.402344 150.398438 C 234.824219 155.585938 237.9375 163.097656 237.9375 171.015625 L 237.9375 181.890625 C 237.9375 184.984375 240.449219 187.496094 243.542969 187.496094 L 299.589844 187.496094 C 302.683594 187.496094 305.195312 184.984375 305.195312 181.890625 Z M 293.984375 176.285156 L 249.148438 176.285156 L 249.148438 171.015625 C 249.148438 160.054688 244.769531 149.585938 237.144531 142.292969 C 225.574219 131.234375 219.824219 115.601562 221.375 99.398438 C 223.679688 75.34375 242.359375 55.957031 265.804688 53.304688 C 280.148438 51.703125 293.964844 56.089844 304.71875 65.699219 C 315.703125 75.519531 322.011719 89.699219 322.011719 104.617188 C 322.011719 118.976562 316.070312 132.808594 305.707031 142.566406 C 298.257812 149.574219 293.984375 159.953125 293.984375 171.039062 Z M 293.984375 176.285156 " fill-opacity="1" fill-rule="nonzero"/><path fill="#fefce8" d="M 243.542969 193.101562 L 299.589844 193.101562 L 299.589844 204.308594 L 243.542969 204.308594 Z M 243.542969 193.101562 " fill-opacity="1" fill-rule="nonzero"/><path fill="#fefce8" d="M 298.804688 218.78125 L 299.300781 217.296875 C 299.871094 215.585938 299.578125 213.710938 298.527344 212.246094 C 297.476562 210.777344 295.785156 209.914062 293.984375 209.914062 L 249.148438 209.914062 C 247.347656 209.914062 245.65625 210.777344 244.601562 212.246094 C 243.550781 213.710938 243.261719 215.585938 243.828125 217.296875 L 244.324219 218.78125 C 248.144531 230.238281 258.832031 237.9375 270.910156 237.9375 L 272.222656 237.9375 C 284.300781 237.9375 294.988281 230.238281 298.804688 218.78125 Z M 272.222656 226.730469 L 270.910156 226.730469 C 266.007812 226.730469 261.496094 224.617188 258.375 221.125 L 284.761719 221.125 C 281.640625 224.617188 277.128906 226.730469 272.222656 226.730469 Z M 272.222656 226.730469 " fill-opacity="1" fill-rule="nonzero"/><path fill="#fefce8" d="M 181.890625 92.214844 L 198.707031 92.214844 L 198.707031 103.425781 L 181.890625 103.425781 Z M 181.890625 92.214844 " fill-opacity="1" fill-rule="nonzero"/><g clip-path="url(#4778a0625f)"><path fill="#fefce8" d="M 344.429688 92.214844 L 361.242188 92.214844 L 361.242188 103.425781 L 344.429688 103.425781 Z M 344.429688 92.214844 " fill-opacity="1" fill-rule="nonzero"/></g><path fill="#fefce8" d="M 204.191406 38.375 L 212.117188 30.445312 L 224.003906 42.335938 L 216.078125 50.261719 Z M 204.191406 38.375 " fill-opacity="1" fill-rule="nonzero"/><path fill="#fefce8" d="M 319.121094 42.335938 L 331.011719 30.445312 L 338.9375 38.375 L 327.046875 50.261719 Z M 319.121094 42.335938 " fill-opacity="1" fill-rule="nonzero"/><g clip-path="url(#25c33af0df)"><path fill="#fefce8" d="M 265.960938 13.746094 L 277.171875 13.746094 L 277.171875 30.5625 L 265.960938 30.5625 Z M 265.960938 13.746094 " fill-opacity="1" fill-rule="nonzero"/></g><g clip-path="url(#5def842f78)"><path fill="#fefce8" d="M 27.949219 361.054688 C 28.433594 361.183594 28.917969 361.242188 29.402344 361.242188 C 30.980469 361.242188 32.519531 360.570312 33.59375 359.359375 L 66.859375 321.851562 C 67.4375 321.203125 67.855469 320.425781 68.082031 319.582031 L 102.890625 189.648438 C 106.894531 174.722656 98.003906 159.324219 83.078125 155.324219 C 68.136719 151.328125 52.757812 160.21875 48.753906 175.144531 L 13.9375 305.078125 C 13.707031 305.917969 13.6875 306.796875 13.859375 307.652344 L 23.910156 356.765625 C 24.335938 358.84375 25.898438 360.503906 27.949219 361.054688 Z M 52.453125 321.199219 L 48.296875 325.886719 L 27.917969 320.429688 L 26.660156 314.285156 Z M 32.648438 343.53125 L 30.433594 332.703125 L 39.984375 335.265625 Z M 58.699219 311.265625 L 47.871094 308.363281 L 76.878906 200.082031 L 87.707031 202.988281 Z M 80.175781 166.152344 C 89.132812 168.550781 94.460938 177.792969 92.0625 186.746094 L 90.613281 192.160156 L 58.125 183.460938 L 59.578125 178.046875 C 61.980469 169.089844 71.21875 163.757812 80.175781 166.152344 Z M 55.226562 194.28125 L 66.058594 197.1875 L 37.046875 305.464844 L 26.21875 302.5625 Z M 55.226562 194.28125 " fill-opacity="1" fill-rule="nonzero"/></g><path fill="#fefce8" d="M 277.171875 288.382812 L 277.171875 271.566406 L 265.960938 271.566406 L 265.960938 288.382812 C 265.960938 310.015625 248.363281 327.613281 226.730469 327.613281 L 215.519531 327.613281 C 193.886719 327.613281 176.285156 310.015625 176.285156 288.382812 L 176.285156 187.496094 C 176.285156 159.683594 153.652344 137.050781 125.84375 137.050781 L 120.238281 137.050781 L 120.238281 148.261719 L 125.84375 148.261719 C 147.476562 148.261719 165.078125 165.859375 165.078125 187.496094 L 165.078125 288.382812 C 165.078125 316.191406 187.707031 338.824219 215.519531 338.824219 L 226.730469 338.824219 C 254.539062 338.824219 277.171875 316.191406 277.171875 288.382812 Z M 277.171875 288.382812 " fill-opacity="1" fill-rule="nonzero"/><path fill="#fefce8" d="M 265.960938 249.148438 L 277.171875 249.148438 L 277.171875 260.359375 L 265.960938 260.359375 Z M 265.960938 249.148438 " fill-opacity="1" fill-rule="nonzero"/><path fill="#fefce8" d="M 300.4375 91.265625 L 284.03125 88.761719 L 276.644531 73.019531 C 275.71875 71.050781 273.742188 69.796875 271.566406 69.796875 C 269.390625 69.796875 267.414062 71.050781 266.496094 73.019531 L 259.109375 88.761719 L 242.703125 91.265625 C 240.625 91.585938 238.902344 93.039062 238.234375 95.027344 C 237.570312 97.019531 238.074219 99.21875 239.535156 100.722656 L 251.570312 113.058594 L 248.714844 130.546875 C 248.367188 132.664062 249.265625 134.792969 251.019531 136.03125 C 252.773438 137.269531 255.082031 137.390625 256.960938 136.359375 L 271.566406 128.28125 L 286.171875 136.351562 C 287.023438 136.816406 287.957031 137.050781 288.886719 137.050781 C 290.019531 137.050781 291.148438 136.703125 292.113281 136.027344 C 293.867188 134.789062 294.765625 132.660156 294.417969 130.539062 L 291.566406 113.054688 L 303.597656 100.714844 C 305.066406 99.214844 305.570312 97.019531 304.898438 95.023438 C 304.226562 93.027344 302.511719 91.585938 300.4375 91.265625 Z M 281.566406 107.257812 C 280.320312 108.53125 279.761719 110.316406 280.046875 112.070312 L 281.5 120.960938 L 274.28125 116.96875 C 273.433594 116.503906 272.503906 116.269531 271.566406 116.269531 C 270.632812 116.269531 269.699219 116.503906 268.855469 116.96875 L 261.636719 120.960938 L 263.085938 112.070312 C 263.371094 110.316406 262.8125 108.53125 261.566406 107.257812 L 255.171875 100.707031 L 263.753906 99.394531 C 265.605469 99.109375 267.191406 97.925781 267.980469 96.234375 L 271.566406 88.59375 L 275.152344 96.234375 C 275.949219 97.925781 277.535156 99.109375 279.378906 99.394531 L 287.960938 100.707031 Z M 281.566406 107.257812 " fill-opacity="1" fill-rule="nonzero"/><path fill="#fefce8" d="M 97.820312 137.050781 L 109.027344 137.050781 L 109.027344 148.261719 L 97.820312 148.261719 Z M 97.820312 137.050781 " fill-opacity="1" fill-rule="nonzero"/></svg>