<svg xmlns="http://www.w3.org/2000/svg" xmlns:xlink="http://www.w3.org/1999/xlink" width="500" zoomAndPan="magnify" viewBox="0 0 375 374.999991" height="500" preserveAspectRatio="xMidYMid meet" version="1.0"><path fill="#fefce8" d="M 193.53125 102.898438 C 258.261719 55.792969 349.269531 90.402344 365.183594 168.484375 C 369.566406 190.0625 367.640625 210.996094 359.417969 231.503906 C 332.394531 298.371094 250.890625 319.203125 193.425781 277.648438 C 192.570312 277.117188 191.714844 277.117188 190.859375 277.648438 C 156.144531 301.46875 120.253906 305.742188 83.082031 290.574219 C 32.773438 269.960938 5.429688 213.027344 21.023438 159.9375 C 42.707031 86.023438 128.800781 58.785156 190.648438 102.898438 C 191.609375 103.644531 192.570312 103.644531 193.53125 102.898438 Z M 181.246094 267.183594 C 138.949219 224.347656 139.269531 157.589844 181.246094 113.367188 C 182.101562 112.511719 181.996094 111.765625 181.035156 111.125 C 159.5625 97.238281 137.988281 91.574219 116.304688 94.03125 C 63.855469 99.90625 22.839844 146.371094 29.25 200.421875 C 34.804688 246.992188 70.800781 282.5625 117.691406 286.835938 C 139.695312 288.867188 160.847656 282.992188 181.035156 269.425781 C 182.101562 268.785156 182.101562 268.035156 181.246094 267.183594 Z M 320.109375 115.929688 C 285.714844 87.730469 240.53125 86.234375 202.71875 111.335938 C 201.863281 111.976562 201.757812 112.617188 202.503906 113.472656 C 244.375 155.984375 245.550781 224.457031 202.609375 267.289062 C 201.757812 268.035156 201.863281 268.785156 202.71875 269.316406 C 220.234375 281.066406 238.5 287.050781 257.40625 287.15625 C 298.210938 287.476562 334.207031 262.589844 348.84375 224.5625 C 363.691406 185.789062 351.941406 141.992188 320.109375 115.929688 Z M 192.890625 259.597656 C 232.414062 221.039062 231.453125 159.191406 193.105469 121.269531 C 192.355469 120.523438 191.503906 120.523438 190.753906 121.378906 C 165.867188 147.65625 157 177.777344 164.15625 211.746094 C 167.574219 228.195312 176.441406 244.109375 190.753906 259.492188 C 191.503906 260.238281 192.25 260.238281 192.890625 259.597656 Z M 192.890625 259.597656 " fill-opacity="1" fill-rule="evenodd"/><path fill="#fefce8" d="M 69.945312 208.003906 C 70.691406 208.328125 71.441406 208.433594 72.1875 208.21875 C 77.742188 207.152344 80.625 204.160156 80.839844 199.246094 C 81.269531 188.457031 81.375 177.5625 81.160156 166.5625 C 81.054688 163.785156 82.335938 161.96875 84.792969 160.898438 C 85.753906 160.472656 86.714844 160.367188 87.675781 160.578125 C 91.308594 161.433594 93.019531 163.675781 93.019531 167.414062 C 93.019531 175 93.125 183.011719 93.125 191.554688 C 93.125 200.527344 92.164062 206.722656 90.027344 210.140625 C 83.296875 221.359375 67.273438 224.027344 57.554688 214.734375 C 53.28125 210.570312 51.039062 206.296875 50.933594 202.023438 C 50.71875 190.382812 50.71875 178.632812 50.824219 166.773438 C 50.933594 162.929688 52.855469 160.898438 56.59375 160.472656 C 57.339844 160.367188 57.980469 160.472656 58.621094 160.792969 C 61.398438 161.859375 62.789062 163.996094 62.789062 166.988281 C 62.789062 177.242188 62.789062 187.496094 62.683594 197.859375 C 62.683594 202.558594 65.03125 205.976562 69.945312 208.003906 Z M 69.945312 208.003906 " fill-opacity="1" fill-rule="evenodd"/><path fill="#fefce8" d="M 120.898438 177.136719 L 129.226562 163.890625 C 131.257812 160.6875 134.035156 159.832031 137.558594 161.21875 C 138.308594 161.539062 139.054688 162.074219 139.804688 162.824219 C 141.40625 164.53125 141.726562 167.09375 140.445312 169.125 L 127.839844 189.097656 C 127.304688 189.847656 127.304688 190.703125 127.839844 191.664062 L 140.230469 211.210938 C 140.765625 212.171875 141.085938 213.238281 141.085938 214.308594 C 141.085938 216.65625 139.804688 218.6875 137.667969 219.648438 L 136.917969 219.96875 C 134.355469 221.144531 131.363281 220.289062 129.871094 217.941406 L 120.683594 203.199219 C 120.46875 202.878906 120.148438 202.664062 119.722656 202.664062 C 119.292969 202.664062 118.972656 202.878906 118.761719 203.199219 L 110 217.191406 C 108.507812 219.863281 104.980469 220.929688 102.097656 219.542969 L 99.855469 218.367188 C 98.464844 217.726562 97.609375 216.445312 97.609375 214.949219 C 97.609375 214.199219 97.824219 213.558594 98.25 212.917969 L 111.605469 191.875 C 112.136719 191.023438 112.136719 189.847656 111.605469 188.886719 L 98.785156 168.804688 C 97.71875 167.09375 97.824219 164.746094 99.214844 163.25 C 99.960938 162.394531 100.707031 161.753906 101.5625 161.328125 C 105.195312 159.617188 107.972656 160.367188 110.109375 163.675781 L 118.652344 177.136719 C 119.402344 178.3125 120.148438 178.3125 120.898438 177.136719 Z M 120.898438 177.136719 " fill-opacity="1" fill-rule="evenodd"/><path fill="#fefce8" d="M 271.402344 208.21875 C 272.253906 208.328125 273.003906 208.21875 273.75 207.898438 C 278.238281 206.082031 280.480469 203.625 280.480469 200.847656 C 280.800781 188.886719 280.90625 177.5625 280.800781 166.882812 C 280.800781 163.035156 282.722656 161.007812 286.460938 160.578125 C 286.996094 160.472656 287.53125 160.578125 287.957031 160.578125 C 291.375 161.113281 292.976562 163.144531 292.871094 166.453125 C 292.550781 174.679688 292.65625 183.4375 292.976562 192.730469 C 293.296875 200.316406 292.230469 206.191406 289.558594 210.355469 C 281.226562 223.921875 261.789062 223.601562 253.457031 209.609375 C 251.320312 206.082031 250.25 199.886719 250.359375 191.023438 C 250.359375 183.757812 250.359375 176.066406 250.464844 168.054688 C 250.464844 164.425781 252.175781 161.859375 255.59375 160.578125 C 256.554688 160.152344 257.515625 160.257812 258.691406 160.792969 C 261.144531 161.859375 262.320312 163.675781 262.320312 166.347656 C 262.214844 177.457031 262.320312 188.457031 262.75 199.355469 C 262.960938 204.265625 265.847656 207.257812 271.402344 208.21875 Z M 271.402344 208.21875 " fill-opacity="1" fill-rule="evenodd"/><path fill="#fefce8" d="M 318.1875 173.929688 L 318.1875 206.9375 C 318.1875 208.003906 318.71875 208.539062 319.894531 208.433594 C 324.273438 208.003906 326.410156 210.140625 326.304688 214.949219 C 326.199219 218.046875 323.742188 220.394531 320.75 220.394531 L 303.550781 220.394531 C 301.628906 220.394531 299.707031 219.328125 298.746094 217.511719 C 295.863281 212.171875 299.386719 208.433594 304.835938 208.21875 C 305.6875 208.113281 306.117188 207.683594 306.117188 206.832031 L 306.117188 173.929688 C 306.117188 172.757812 305.582031 172.328125 304.515625 172.328125 C 300.132812 172.757812 297.890625 170.621094 297.890625 166.027344 C 297.996094 162.824219 300.5625 160.367188 303.660156 160.367188 L 320.429688 160.367188 C 323.632812 160.367188 326.304688 163.035156 326.304688 166.347656 C 326.304688 166.5625 326.304688 166.773438 326.304688 166.988281 C 325.878906 170.726562 323.742188 172.4375 319.894531 172.222656 C 318.71875 172.222656 318.1875 172.757812 318.1875 173.929688 Z M 318.1875 173.929688 " fill-opacity="1" fill-rule="evenodd"/></svg>