<svg xmlns="http://www.w3.org/2000/svg" xmlns:xlink="http://www.w3.org/1999/xlink" width="500" zoomAndPan="magnify" viewBox="0 0 375 374.999991" height="500" preserveAspectRatio="xMidYMid meet" version="1.0"><defs><clipPath id="14e4447817"><path d="M 12.589844 40.792969 L 362.089844 40.792969 L 362.089844 262 L 12.589844 262 Z M 12.589844 40.792969 " clip-rule="nonzero"/></clipPath><clipPath id="b5d306e69a"><path d="M 120 296 L 255 296 L 255 334.042969 L 120 334.042969 Z M 120 296 " clip-rule="nonzero"/></clipPath></defs><g clip-path="url(#14e4447817)"><path fill="#fefce8" d="M 358.402344 261.320312 L 16.597656 261.320312 C 14.382812 261.320312 12.589844 259.523438 12.589844 257.3125 L 12.589844 44.882812 C 12.589844 42.671875 14.382812 40.878906 16.597656 40.878906 L 358.402344 40.878906 C 360.613281 40.878906 362.40625 42.671875 362.40625 44.882812 L 362.40625 257.3125 C 362.40625 259.527344 360.613281 261.320312 358.402344 261.320312 Z M 20.601562 253.308594 L 354.394531 253.308594 L 354.394531 48.890625 L 20.601562 48.890625 Z M 20.601562 253.308594 " fill-opacity="1" fill-rule="nonzero"/></g><path fill="#fefce8" d="M 335.351562 238.265625 L 39.648438 238.265625 C 37.4375 238.265625 35.640625 236.472656 35.640625 234.261719 L 35.640625 67.9375 C 35.640625 65.722656 37.4375 63.929688 39.648438 63.929688 L 335.351562 63.929688 C 337.5625 63.929688 339.355469 65.722656 339.355469 67.9375 L 339.355469 234.261719 C 339.355469 236.472656 337.5625 238.265625 335.351562 238.265625 Z M 43.652344 230.257812 L 331.34375 230.257812 L 331.34375 71.941406 L 43.652344 71.941406 Z M 43.652344 230.257812 " fill-opacity="1" fill-rule="nonzero"/><g clip-path="url(#b5d306e69a)"><path fill="#fefce8" d="M 250.140625 334.179688 L 124.855469 334.179688 C 123.636719 334.179688 122.480469 333.621094 121.71875 332.664062 C 120.960938 331.707031 120.679688 330.457031 120.953125 329.265625 L 127.765625 299.988281 C 128.1875 298.171875 129.804688 296.890625 131.664062 296.890625 L 243.082031 296.890625 C 244.933594 296.890625 246.542969 298.15625 246.976562 299.957031 L 254.035156 329.234375 C 254.324219 330.429688 254.046875 331.6875 253.289062 332.652344 C 252.527344 333.617188 251.367188 334.179688 250.140625 334.179688 Z M 129.902344 326.167969 L 245.054688 326.167969 L 239.929688 304.902344 L 134.847656 304.902344 Z M 129.902344 326.167969 " fill-opacity="1" fill-rule="nonzero"/></g><path fill="#fefce8" d="M 131.664062 304.902344 C 130.789062 304.902344 129.90625 304.617188 129.171875 304.027344 C 127.441406 302.648438 127.15625 300.128906 128.535156 298.398438 L 163.257812 254.820312 C 164.636719 253.09375 167.15625 252.804688 168.886719 254.1875 C 170.617188 255.566406 170.902344 258.085938 169.523438 259.816406 L 134.796875 303.390625 C 134.007812 304.382812 132.839844 304.902344 131.664062 304.902344 Z M 131.664062 304.902344 " fill-opacity="1" fill-rule="nonzero"/><path fill="#fefce8" d="M 243.085938 304.902344 C 241.914062 304.902344 240.75 304.386719 239.960938 303.402344 L 204.984375 259.824219 C 203.601562 258.101562 203.878906 255.578125 205.601562 254.195312 C 207.328125 252.808594 209.847656 253.085938 211.234375 254.8125 L 246.207031 298.386719 C 247.59375 300.113281 247.316406 302.632812 245.589844 304.019531 C 244.851562 304.613281 243.964844 304.902344 243.085938 304.902344 Z M 243.085938 304.902344 " fill-opacity="1" fill-rule="nonzero"/><path fill="#fefce8" d="M 335.351562 110.414062 L 39.648438 110.414062 C 37.4375 110.414062 35.640625 108.621094 35.640625 106.410156 C 35.640625 104.199219 37.4375 102.40625 39.648438 102.40625 L 335.351562 102.40625 C 337.5625 102.40625 339.355469 104.199219 339.355469 106.410156 C 339.355469 108.621094 337.5625 110.414062 335.351562 110.414062 Z M 335.351562 110.414062 " fill-opacity="1" fill-rule="nonzero"/><path fill="#fefce8" d="M 56.339844 81.316406 L 70.472656 81.316406 L 70.472656 95.449219 L 56.339844 95.449219 Z M 56.339844 81.316406 " fill-opacity="1" fill-rule="nonzero"/><path fill="#fefce8" d="M 83.632812 81.316406 L 97.765625 81.316406 L 97.765625 95.449219 L 83.632812 95.449219 Z M 83.632812 81.316406 " fill-opacity="1" fill-rule="nonzero"/><path fill="#fefce8" d="M 110.925781 81.316406 L 125.058594 81.316406 L 125.058594 95.449219 L 110.925781 95.449219 Z M 110.925781 81.316406 " fill-opacity="1" fill-rule="nonzero"/><path fill="#fefce8" d="M 208.109375 133.933594 L 62.375 133.933594 C 60.164062 133.933594 58.371094 132.140625 58.371094 129.929688 C 58.371094 127.714844 60.164062 125.921875 62.375 125.921875 L 208.109375 125.921875 C 210.320312 125.921875 212.117188 127.714844 212.117188 129.929688 C 212.117188 132.140625 210.324219 133.933594 208.109375 133.933594 Z M 208.109375 133.933594 " fill-opacity="1" fill-rule="nonzero"/><path fill="#fefce8" d="M 208.109375 152.519531 L 62.375 152.519531 C 60.164062 152.519531 58.371094 150.726562 58.371094 148.515625 C 58.371094 146.304688 60.164062 144.511719 62.375 144.511719 L 208.109375 144.511719 C 210.320312 144.511719 212.117188 146.304688 212.117188 148.515625 C 212.117188 150.726562 210.324219 152.519531 208.109375 152.519531 Z M 208.109375 152.519531 " fill-opacity="1" fill-rule="nonzero"/><path fill="#fefce8" d="M 176.164062 171.105469 L 62.375 171.105469 C 60.164062 171.105469 58.371094 169.3125 58.371094 167.101562 C 58.371094 164.890625 60.164062 163.097656 62.375 163.097656 L 176.164062 163.097656 C 178.375 163.097656 180.167969 164.890625 180.167969 167.101562 C 180.167969 169.3125 178.375 171.105469 176.164062 171.105469 Z M 176.164062 171.105469 " fill-opacity="1" fill-rule="nonzero"/><path fill="#fefce8" d="M 208.109375 219.945312 L 63.40625 219.945312 C 61.195312 219.945312 59.402344 218.152344 59.402344 215.941406 L 59.402344 186.84375 C 59.402344 184.632812 61.195312 182.835938 63.40625 182.835938 L 208.109375 182.835938 C 210.320312 182.835938 212.117188 184.632812 212.117188 186.84375 L 212.117188 215.941406 C 212.117188 218.152344 210.324219 219.945312 208.109375 219.945312 Z M 67.410156 211.933594 L 204.105469 211.933594 L 204.105469 190.847656 L 67.410156 190.847656 Z M 67.410156 211.933594 " fill-opacity="1" fill-rule="nonzero"/><path fill="#fefce8" d="M 252.890625 180.0625 C 251.796875 180.0625 250.703125 179.613281 249.914062 178.734375 L 232.09375 158.914062 C 230.726562 157.390625 230.726562 155.082031 232.09375 153.558594 L 249.910156 133.742188 C 251.390625 132.09375 253.921875 131.960938 255.566406 133.4375 C 257.210938 134.917969 257.347656 137.449219 255.867188 139.097656 L 240.460938 156.234375 L 255.871094 173.378906 C 257.351562 175.023438 257.214844 177.554688 255.570312 179.035156 C 254.804688 179.722656 253.847656 180.0625 252.890625 180.0625 Z M 252.890625 180.0625 " fill-opacity="1" fill-rule="nonzero"/><path fill="#fefce8" d="M 293.449219 180.0625 C 292.496094 180.0625 291.539062 179.722656 290.773438 179.035156 C 289.128906 177.554688 288.992188 175.023438 290.472656 173.378906 L 305.882812 156.234375 L 290.476562 139.097656 C 288.996094 137.453125 289.128906 134.917969 290.777344 133.441406 C 292.417969 131.960938 294.953125 132.09375 296.433594 133.742188 L 314.246094 153.558594 C 315.617188 155.082031 315.617188 157.390625 314.246094 158.914062 L 296.429688 178.734375 C 295.640625 179.613281 294.546875 180.0625 293.449219 180.0625 Z M 293.449219 180.0625 " fill-opacity="1" fill-rule="nonzero"/><path fill="#fefce8" d="M 263.046875 186.554688 C 262.570312 186.554688 262.082031 186.46875 261.609375 186.285156 C 259.546875 185.492188 258.515625 183.171875 259.3125 181.109375 L 279.554688 128.488281 C 280.347656 126.425781 282.667969 125.394531 284.730469 126.191406 C 286.796875 126.984375 287.828125 129.300781 287.03125 131.367188 L 266.785156 183.984375 C 266.175781 185.578125 264.65625 186.554688 263.046875 186.554688 Z M 263.046875 186.554688 " fill-opacity="1" fill-rule="nonzero"/></svg>