<?xml version="1.0" encoding="UTF-8"?>
<svg id="Layer_1" data-name="Layer 1" xmlns="http://www.w3.org/2000/svg" xmlns:xlink="http://www.w3.org/1999/xlink" version="1.1" viewBox="0 0 275 275">
  <defs>
    <style>
      .cls-1 {
        fill-rule: evenodd;
      }

      .cls-1, .cls-2, .cls-3 {
        stroke-width: 0px;
      }

      .cls-1, .cls-3 {
        fill: #feedd5;
      }

      .cls-4 {
        clip-path: url(#clippath);
      }

      .cls-2 {
        fill: none;
      }

      .cls-5 {
        clip-path: url(#clippath-1);
      }

      .cls-6 {
        clip-path: url(#clippath-4);
      }

      .cls-7 {
        clip-path: url(#clippath-3);
      }

      .cls-8 {
        clip-path: url(#clippath-2);
      }
    </style>
    <clipPath id="clippath">
      <rect class="cls-2" width="275" height="275"/>
    </clipPath>
    <clipPath id="clippath-1">
      <circle class="cls-2" cx="137.5" cy="137.5" r="137.5"/>
    </clipPath>
    <clipPath id="clippath-2">
      <rect class="cls-2" x="104.8" y="75.4" width="70.7" height="124"/>
    </clipPath>
    <clipPath id="clippath-3">
      <rect class="cls-2" x="75.1" y="103.7" width="125" height="70" transform="translate(-54.5 103.2) rotate(-34.8)"/>
    </clipPath>
    <clipPath id="clippath-4">
      <rect class="cls-2" x="75.1" y="103.7" width="125" height="70" transform="translate(-54.5 103.2) rotate(-34.8)"/>
    </clipPath>
  </defs>
  <g class="cls-4">
    <g class="cls-5">
      <path class="cls-3" d="M137.5,283c-80.2,0-145.5-65.3-145.5-145.5S57.3-8,137.5-8s145.5,65.3,145.5,145.5-65.3,145.5-145.5,145.5ZM137.5,8C66.1,8,8,66.1,8,137.5s58.1,129.5,129.5,129.5,129.5-58.1,129.5-129.5S208.9,8,137.5,8Z"/>
    </g>
  </g>
  <g class="cls-8">
    <g class="cls-7">
      <g class="cls-6">
        <path class="cls-1" d="M145.8,120.4c-16.2,22.9-29.2,46.7-38.7,71.6-3,7.9.2,10.1,5.4,3.3,18.8-24.3,32.6-48,43-70,1.3-.7,2.4-1.6,3.2-3.6,1.5-4,3.7-8.5,4.5-12.3.3-1.3-.3-1.8-.4-2.6,5-.7,9-5.3,10.9-10.1,3.4-9-.2-15.5-6.7-20.9.8,5.2-1.2,9.3-6.1,13.1-6.3,4.9-7,10.4-3.8,15.4-.9,0-1.9.3-3.3,2.1-2.2,2.7-4.4,5.5-6.8,9-1.5,2.2-1.4,3.7-1.1,4.9ZM149.4,123.1c1.3-1.7,4.4-.1,3.4,2.1-10.3,22.7-24,44.2-39.4,65.6-3.6,5.1-3.7,2.1-2.1-1.4,10.7-23.7,22.9-46.2,38-66.3ZM151,119.6c-.6-.2-.8-1-.2-2.1,2-3.6,4.1-6.6,6.6-9.7,1.8-2.2,4.3-.2,3.5,2.1-1.2,3.6-3.1,7.3-5.2,10.9-.4.7-1.3.7-2.1.2-.8-.5-1.6-1.2-2.5-1.5ZM158.9,102.2c-1-2.9-.9-6,3.3-9.9,4.2-3.9,6.1-7.4,7.5-10.8,3.7,7,1.8,14.7-4.8,21.9-1.2,1.3-2.3.4-1.4-1,3.7-5.5,5-9.5,5.4-13.6-1.7,4.7-3.7,9.2-8,13.2.3-3.4,1.7-6.4,3.4-9.2-2.7,2.3-4.7,5.2-5.4,9.5Z"/>
      </g>
    </g>
  </g>
  <path class="cls-3" d="M74.9,190.3c-3.1,0-5.2-1-7.2-3.1l-41.4-41.4c-4.1-4.1-4.1-10.3,0-14.5l41.4-41.4c4.1-4.1,10.3-4.1,14.5,0s4.1,10.3,0,14.5l-34.1,34.1,34.1,34.1c4.1,4.1,4.1,10.3,0,14.5s-4.1,3.1-7.2,3.1Z"/>
  <path class="cls-3" d="M198.1,190.3c3.1,0,5.2-1,7.2-3.1l41.4-41.4c4.1-4.1,4.1-10.3,0-14.5l-41.4-41.4c-4.1-4.1-10.3-4.1-14.5,0s-4.1,10.3,0,14.5l34.1,34.1-34.1,34.1c-4.1,4.1-4.1,10.3,0,14.5s4.1,3.1,7.2,3.1Z"/>
</svg>