<?xml version="1.0" encoding="UTF-8"?>
<svg id="Layer_1" data-name="Layer 1" xmlns="http://www.w3.org/2000/svg" xmlns:xlink="http://www.w3.org/1999/xlink" version="1.1" viewBox="0 0 449.8 331.5">
  <defs>
    <style>
      .cls-1 {
        clip-path: url(#clippath);
      }

      .cls-2, .cls-3, .cls-4, .cls-5, .cls-6 {
        fill: none;
      }

      .cls-2, .cls-7 {
        stroke-width: 0px;
      }

      .cls-3 {
        stroke-width: 4px;
      }

      .cls-3, .cls-4, .cls-5, .cls-6 {
        stroke: #fda45f;
      }

      .cls-4 {
        stroke-width: 2px;
      }

      .cls-8 {
        clip-path: url(#clippath-1);
      }

      .cls-9 {
        clip-path: url(#clippath-4);
      }

      .cls-10 {
        clip-path: url(#clippath-3);
      }

      .cls-11 {
        clip-path: url(#clippath-2);
      }

      .cls-12 {
        clip-path: url(#clippath-7);
      }

      .cls-13 {
        clip-path: url(#clippath-8);
      }

      .cls-14 {
        clip-path: url(#clippath-6);
      }

      .cls-15 {
        clip-path: url(#clippath-5);
      }

      .cls-16 {
        clip-path: url(#clippath-9);
      }

      .cls-17 {
        clip-path: url(#clippath-20);
      }

      .cls-18 {
        clip-path: url(#clippath-21);
      }

      .cls-19 {
        clip-path: url(#clippath-24);
      }

      .cls-20 {
        clip-path: url(#clippath-23);
      }

      .cls-21 {
        clip-path: url(#clippath-22);
      }

      .cls-22 {
        clip-path: url(#clippath-25);
      }

      .cls-23 {
        clip-path: url(#clippath-14);
      }

      .cls-24 {
        clip-path: url(#clippath-13);
      }

      .cls-25 {
        clip-path: url(#clippath-12);
      }

      .cls-26 {
        clip-path: url(#clippath-10);
      }

      .cls-27 {
        clip-path: url(#clippath-15);
      }

      .cls-28 {
        clip-path: url(#clippath-17);
      }

      .cls-29 {
        clip-path: url(#clippath-16);
      }

      .cls-30 {
        clip-path: url(#clippath-19);
      }

      .cls-31 {
        clip-path: url(#clippath-11);
      }

      .cls-32 {
        clip-path: url(#clippath-18);
      }

      .cls-5 {
        stroke-miterlimit: 4;
        stroke-width: 2px;
      }

      .cls-6 {
        stroke-miterlimit: 4;
        stroke-width: 2px;
      }

      .cls-7 {
        fill: #9c2e0e;
      }
    </style>
    <clipPath id="clippath">
      <rect class="cls-2" x="198.2" y="146.6" width="29" height="29"/>
    </clipPath>
    <clipPath id="clippath-1">
      <path class="cls-2" d="M212.7,146.6c-8,0-14.5,6.5-14.5,14.5s6.5,14.5,14.5,14.5,14.5-6.5,14.5-14.5-6.5-14.5-14.5-14.5Z"/>
    </clipPath>
    <clipPath id="clippath-2">
      <rect class="cls-2" x="167.9" y="119" width="89.5" height="89.5"/>
    </clipPath>
    <clipPath id="clippath-3">
      <path class="cls-2" d="M212.7,119c-24.7,0-44.8,20-44.8,44.8s20,44.8,44.8,44.8,44.8-20,44.8-44.8-20-44.8-44.8-44.8Z"/>
    </clipPath>
    <clipPath id="clippath-4">
      <rect class="cls-2" x="131.8" y="83" width="161.7" height="161.7"/>
    </clipPath>
    <clipPath id="clippath-5">
      <path class="cls-2" d="M212.7,83c-44.7,0-80.8,36.2-80.8,80.9s36.2,80.8,80.8,80.8,80.9-36.2,80.9-80.8-36.2-80.9-80.9-80.9Z"/>
    </clipPath>
    <clipPath id="clippath-6">
      <rect class="cls-2" x="87.7" y="36.2" width="252.7" height="252.7"/>
    </clipPath>
    <clipPath id="clippath-7">
      <path class="cls-2" d="M214,36.2c-69.8,0-126.3,56.6-126.3,126.4s56.6,126.3,126.3,126.3,126.4-56.6,126.4-126.3-56.6-126.4-126.4-126.4Z"/>
    </clipPath>
    <clipPath id="clippath-8">
      <rect class="cls-2" x="118.5" y="69.7" width="10.3" height="10.3"/>
    </clipPath>
    <clipPath id="clippath-9">
      <circle class="cls-2" cx="123.7" cy="74.9" r="5.2" transform="translate(-5 9) rotate(-4.1)"/>
    </clipPath>
    <clipPath id="clippath-10">
      <rect class="cls-2" x="207.5" y="31" width="10.3" height="10.3"/>
    </clipPath>
    <clipPath id="clippath-11">
      <path class="cls-2" d="M212.7,31c-2.8,0-5.2,2.3-5.2,5.2s2.3,5.2,5.2,5.2,5.2-2.3,5.2-5.2-2.3-5.2-5.2-5.2Z"/>
    </clipPath>
    <clipPath id="clippath-12">
      <rect class="cls-2" x="296.2" y="69.7" width="10.3" height="10.3"/>
    </clipPath>
    <clipPath id="clippath-13">
      <path class="cls-2" d="M301.4,69.7c-2.8,0-5.2,2.3-5.2,5.2s2.3,5.2,5.2,5.2,5.2-2.3,5.2-5.2-2.3-5.2-5.2-5.2Z"/>
    </clipPath>
    <clipPath id="clippath-14">
      <rect class="cls-2" x="335.2" y="157.4" width="10.3" height="10.3"/>
    </clipPath>
    <clipPath id="clippath-15">
      <circle class="cls-2" cx="340.4" cy="162.5" r="5.2"/>
    </clipPath>
    <clipPath id="clippath-16">
      <rect class="cls-2" x="296.2" y="246.1" width="10.3" height="10.3"/>
    </clipPath>
    <clipPath id="clippath-17">
      <path class="cls-2" d="M301.4,246.1c-2.8,0-5.2,2.3-5.2,5.2s2.3,5.2,5.2,5.2,5.2-2.3,5.2-5.2-2.3-5.2-5.2-5.2Z"/>
    </clipPath>
    <clipPath id="clippath-18">
      <rect class="cls-2" x="207.5" y="283.7" width="10.3" height="10.3"/>
    </clipPath>
    <clipPath id="clippath-19">
      <path class="cls-2" d="M212.7,283.7c-2.8,0-5.2,2.3-5.2,5.2s2.3,5.2,5.2,5.2,5.2-2.3,5.2-5.2-2.3-5.2-5.2-5.2Z"/>
    </clipPath>
    <clipPath id="clippath-20">
      <rect class="cls-2" x="118.5" y="247.4" width="10.3" height="10.3"/>
    </clipPath>
    <clipPath id="clippath-21">
      <circle class="cls-2" cx="123.7" cy="252.6" r="5.2" transform="translate(-145.5 334.2) rotate(-80.8)"/>
    </clipPath>
    <clipPath id="clippath-22">
      <rect class="cls-2" x="82.5" y="158.7" width="10.3" height="10.3"/>
    </clipPath>
    <clipPath id="clippath-23">
      <circle class="cls-2" cx="87.7" cy="163.8" r="5.2"/>
    </clipPath>
    <clipPath id="clippath-24">
      <rect class="cls-2" x="122.7" y="72.6" width="182.2" height="182.3"/>
    </clipPath>
    <clipPath id="clippath-25">
      <path class="cls-2" d="M145.3,103.8c23.3-5.4,25.2-6,29.2-8,7.4-3.8,22-16.1,29.9-19.6,4.6-2.1,7.8-2.5,11.7-3,3.9-.5,8.6-.5,11.5-.1,1.7.2,2.5.3,4,1,2.1,1,4.8,2.9,6.8,5.1,2.3,2.6,3.8,5.5,5.9,9.9,3.4,7.2,7.2,21.7,11.2,30.1,3.2,6.7,7,13.3,10,17,1.8,2.1,2.6,2.7,5,4.4,5,3.3,19.4,9.7,24.6,12.9,2.7,1.7,4.2,2.5,5.7,4.3,1.7,1.9,3.1,4.8,3.8,6.9.5,1.6.3,2.4.4,4.4.1,3.6.1,11-.4,15.8-.5,4.2-1,7.9-2.5,11.4-1.4,3.1-3.1,5.3-5.7,8.4-3.8,4.5-11,9.5-15.3,15.3-4.4,5.7-7.3,14.3-10.5,19.4-2.3,3.5-4.4,6.7-6.5,8.8-1.5,1.4-2.6,2.2-4.3,2.9-1.8.8-3.4,1.2-6,1.6-4.6.6-12.7,1.7-19.3.2-7.6-1.8-18.4-9.6-23.1-11.5-2-.8-2.5-1-4.5-1.4-3.2-.4-9.7-.7-13.8-.1-3.2.4-5.4,1.1-8.6,2.6-5,2.1-12.4,8-17.7,10-4.1,1.5-7.8,1.9-11.1,2-2.6.1-5-.3-7-.9-1.5-.5-2.5-.9-3.9-2-2.1-1.7-4.6-4.7-7-8.2-3.8-5.5-9.7-15.1-12-22.1-1.9-5.6-2.1-10.6-2.5-16.2-.4-6-.3-12,.3-19.1.8-9,5-22.7,5.3-30.3.3-4.6-.2-7.1-.7-10.8-.6-4.2-2.4-8.4-2.7-12.8-.2-4.6.2-10.1,1.5-14.2.9-3.3,2.4-6,4.6-8.6,2.4-2.9,5.6-5.8,9.5-7.6,4.7-2.1,11.8-1.7,17.2-2.9,4.9-1.1,9.7-2.2,14.1-4.1,4.5-2,8.2-4.5,12.5-7.3,4.9-3.3,11.2-9.4,15-11.6,2-1.1,3.2-2.2,4.8-2.2,1.4.1,3.3,1.1,3.9,2.2.4,1.1-.3,3.5-1.1,4.3-.7.7-2.4.8-3.3.6-.7-.1-1.5-.6-1.9-1.4-.5-.8-.8-2.4-.4-3.3.3-.9,1.5-2.2,2.5-2.3,1.1-.2,3.4.7,4.1,1.8.5,1,.3,2.7-.6,4.4-2.2,3.6-12.4,9.4-18.5,13.2-5.6,3.5-11.5,7.1-17,9.2-4.7,1.9-9.2,2.7-13.8,3.5-4.5.8-9.8,0-13.5,1.6-3.2,1.4-6.1,4.2-8.1,6.7-1.7,2.1-2.7,4.2-3.4,6.9-.9,3.3-1.1,7.8-.8,11.9.3,4.4,2.3,9.5,2.9,13.4.3,3,.6,4.6.4,8.1-.5,7.2-5.2,22.6-6,32.2-.7,7.8-.5,15,.1,21.2.5,5.2.7,9,2.7,14,2.7,6.7,10.6,17.9,14.1,21.9,1.5,1.8,2.2,2.7,3.8,3.3,2.1.9,5.5,1,8.1.8,2.6-.2,4.6-.8,7.6-2.1,4.8-2,13-8.3,18.1-10.4,3.4-1.4,5.9-1.8,9-2.1,2.9-.3,5.6-.2,8.8,0,3.6.3,7.5.5,11.9,2,6,2.1,13.9,9.1,20.4,10.8,5.4,1.4,11.1.8,15.5.5,3.3-.3,6.1-.4,8.4-1.8,2.3-1.5,3.4-3.6,5.4-6.6,3.1-4.7,6-13.6,10.5-20,5-6.9,15.2-15.3,18.6-19.7,1.5-2,2.1-2.5,2.9-4.6,1.2-3.3,2.1-9.1,2.4-13.8.3-4.9.3-11.8-.6-14.9-.6-1.6-.8-2-2.3-3.3-4.1-3.6-22.7-11.6-28.6-15.7-3-2-4.5-3.4-6.2-5.3-1.6-1.8-2.4-2.9-3.9-5.3-2.6-4.4-6.8-12.6-9.8-19.6-3.3-7.7-6.3-19.2-9-24.8-1.6-3-2.4-5-4.2-6.9-1.7-1.8-3.5-3.4-5.9-4.3-2.9-.8-7.1-.3-10.6.2-3.6.5-7.2,1-11.1,3-5.4,2.6-12.7,9.6-17.8,12.9-3.5,2.3-6,3.8-9.4,5.4-3.4,1.6-6.5,2.9-10.7,4.2-6,1.8-18.8,5-22.3,4.6-1-.2-1.6-.5-2.1-1-.4-.5-.8-1.4-.8-2.1s.3-1.7.8-2.2c.4-.5,2-1.1,2-1.1Z"/>
    </clipPath>
  </defs>
  <g class="cls-1">
    <g class="cls-8">
      <path class="cls-3" d="M212.7,146.6c-8,0-14.5,6.5-14.5,14.5s6.5,14.5,14.5,14.5,14.5-6.5,14.5-14.5-6.5-14.5-14.5-14.5Z"/>
    </g>
  </g>
  <g class="cls-11">
    <g class="cls-10">
      <path class="cls-3" d="M212.7,119c-24.7,0-44.8,20-44.8,44.8s20,44.8,44.8,44.8,44.8-20,44.8-44.8-20-44.8-44.8-44.8Z"/>
    </g>
  </g>
  <g class="cls-9">
    <g class="cls-15">
      <path class="cls-3" d="M212.7,83c-44.7,0-80.8,36.2-80.8,80.9s36.2,80.8,80.8,80.8,80.9-36.2,80.9-80.8-36.2-80.9-80.9-80.9Z"/>
    </g>
  </g>
  <g class="cls-14">
    <g class="cls-12">
      <path class="cls-3" d="M214,36.2c-69.8,0-126.3,56.6-126.3,126.4s56.6,126.3,126.3,126.3,126.4-56.6,126.4-126.3-56.6-126.4-126.4-126.4Z"/>
    </g>
  </g>
  <path class="cls-6" d="M87.7,163.8l252.7-1.3"/>
  <path class="cls-5" d="M123.7,74.9l177.7,177.7"/>
  <path class="cls-4" d="M214,36.2v252.7"/>
  <path class="cls-5" d="M301.4,74.9L123.7,252.6"/>
  <g class="cls-13">
    <g class="cls-16">
      <path class="cls-7" d="M118.5,69.7h10.3v10.3h-10.3v-10.3Z"/>
    </g>
  </g>
  <g class="cls-26">
    <g class="cls-31">
      <path class="cls-7" d="M207.5,31h10.3v10.3h-10.3v-10.3Z"/>
    </g>
  </g>
  <g class="cls-25">
    <g class="cls-24">
      <path class="cls-7" d="M296.2,69.7h10.3v10.3h-10.3v-10.3Z"/>
    </g>
  </g>
  <g class="cls-23">
    <g class="cls-27">
      <path class="cls-7" d="M335.2,157.4h10.3v10.3h-10.3v-10.3Z"/>
    </g>
  </g>
  <g class="cls-29">
    <g class="cls-28">
      <path class="cls-7" d="M296.2,246.1h10.3v10.3h-10.3v-10.3Z"/>
    </g>
  </g>
  <g class="cls-32">
    <g class="cls-30">
      <path class="cls-7" d="M207.5,283.7h10.3v10.3h-10.3v-10.3Z"/>
    </g>
  </g>
  <g class="cls-17">
    <g class="cls-18">
      <path class="cls-7" d="M118.5,247.4h10.3v10.3h-10.3v-10.3Z"/>
    </g>
  </g>
  <g class="cls-21">
    <g class="cls-20">
      <path class="cls-7" d="M82.5,158.7h10.3v10.3h-10.3v-10.3Z"/>
    </g>
  </g>
  <g class="cls-19">
    <g class="cls-22">
      <path class="cls-7" d="M119,68.9h189.8v189.8H119V68.9Z"/>
    </g>
  </g>
  <path class="cls-7" d="M178,12.5c-.6,0-1.1-.2-1.4-.6-.3-.4-.5-1-.6-1.8-.1-.8-.2-1.8-.2-2.9s0-.8,0-1.2c0-.4,0-.7,0-1-1.4,0-2.5-.3-3.1-.6-.7-.3-1-.9-1-1.8s.5-1.7,1.6-2.1c1-.4,2.6-.5,4.7-.5s3.7.2,4.8.5c1.1.3,1.6,1,1.6,2.1s-.3,1.4-1,1.8c-.7.3-1.7.5-3.1.6,0,.3,0,.7,0,1,0,.4,0,.8,0,1.2,0,1.8-.2,3.2-.5,4-.3.8-.9,1.3-1.8,1.3Z"/>
  <path class="cls-7" d="M189.7,12.5c-.9,0-1.7-.2-2.4-.5-.7-.4-1.2-.8-1.6-1.5-.4-.6-.6-1.3-.6-2.1s.2-1.5.6-2.1c.4-.7.9-1.2,1.5-1.6.7-.4,1.4-.6,2.3-.6s1.5.2,2.1.5c.6.3,1,.7,1.3,1.2.3.5.5,1,.5,1.6s-.1,1-.4,1.4c-.3.3-.6.6-1,.8-.4.2-.8.3-1.3.4-.4,0-.9,0-1.3,0s-.8-.1-1.1-.2c.2.3.5.6.8.7.3.1.7.2,1,.2.4,0,.7,0,1-.1.4,0,.7,0,.9,0,.2.1.4.3.4.6,0,.2,0,.4-.2.6s-.5.4-.9.5c-.4.2-1,.2-1.8.2ZM188.6,7.6c.1.2.3.3.5.4.2,0,.5,0,.7,0,.2,0,.4,0,.6-.2.2-.1.3-.3.3-.5s0-.4-.3-.5c-.2-.2-.4-.3-.8-.3s-.6.1-.8.3c-.2.2-.3.4-.3.6Z"/>
  <path class="cls-7" d="M197.6,12.5c-.6,0-1.1,0-1.6-.3-.5-.2-.9-.4-1.1-.8-.3-.4-.4-.8-.4-1.4s.1-.9.4-1.2.7-.6,1.1-.8c.5-.2,1-.3,1.6-.3s.7,0,1,0c.3,0,.5.1.6.2,0-.3-.1-.5-.3-.7-.2-.2-.6-.3-1.2-.3s-.5,0-.6,0c-.1,0-.3,0-.4.2-.1,0-.2.1-.4.1-.2,0-.4,0-.6,0-.4,0-.7,0-.9-.3-.2-.2-.3-.5-.3-.9s.1-.7.3-1c.2-.3.5-.5.8-.7.3-.2.7-.3,1.1-.4.4,0,.8-.1,1.1-.1,1.1,0,1.9.2,2.6.6.7.4,1.2.9,1.5,1.5.3.6.5,1.3.5,2s0,.8-.1,1.1c0,.3-.2.6-.3.8.2.2.3.3.4.5,0,.2.1.4.1.6,0,.3-.1.6-.3.9-.2.3-.5.4-1,.4s-.6,0-.7-.1c-.2,0-.4-.2-.5-.4-.3.2-.6.3-.9.4-.3,0-.8.1-1.4.1ZM198,10.7c.3,0,.5,0,.6-.2.1-.1.2-.2.2-.4s0-.3-.2-.4c-.1-.1-.3-.2-.6-.2s-.5,0-.6.2c-.1.1-.2.2-.2.4s0,.3.2.4c.2.1.4.2.6.2Z"/>
  <path class="cls-7" d="M209.4,12.5c-.6,0-1-.2-1.1-.6-.2-.4-.3-1-.3-1.7s0-1.1,0-1.5c0-.4-.2-.6-.5-.6s-.4,0-.5.3c0,.2-.2.4-.2.7,0,.3,0,.7,0,1.1s0,.8,0,1.1c0,.3-.2.6-.4.8-.2.2-.5.3-.9.3s-.8-.1-1-.4c-.3-.3-.4-.7-.6-1.2-.1-.5-.2-1-.3-1.6,0-.6,0-1.2,0-1.7,0-1,0-1.8.3-2.5.2-.7.6-1.1,1.1-1.3.4-.1.7-.1,1,0,.3,0,.5.3.6.5.1,0,.3-.1.4-.2.2,0,.4-.1.8-.1s.7,0,1.1.3c.3.2.6.4.8.8.3-.3.6-.6.9-.8.3-.2.8-.3,1.3-.3.8,0,1.4.2,1.9.7.5.4,1,1,1.3,1.8s.4,1.6.4,2.5,0,1.1-.2,1.7c0,.5-.3,1-.5,1.3-.3.3-.6.5-1.1.5s-.7,0-.9-.3c-.2-.2-.3-.5-.4-.8,0-.3,0-.7,0-1.1s0-.8,0-1.1c0-.3,0-.5-.1-.7,0-.2-.3-.3-.5-.3s-.3,0-.4.3c0,.2-.1.4-.1.7,0,.3,0,.7,0,1.1,0,.7-.1,1.3-.3,1.7-.2.4-.6.6-1.1.6Z"/>
  <path class="cls-7" d="M219.7,12.6c-.7,0-1.3-.2-1.8-.5-.5-.4-.9-.9-1.2-1.6-.3-.7-.4-1.4-.4-2.3s0-.9.1-1.4c0-.5.2-.9.4-1.3.2-.4.4-.7.6-1,.3-.3.6-.4,1-.4s.8.1,1,.4c.2.3.4.7.4,1.1s0,.5-.1.8c0,.3-.1.6-.2.9,0,.3-.1.6-.1.8,0,.4,0,.7.1.9,0,.2.3.3.5.3s.5-.2.6-.5c0-.3.1-.7.1-1.2v-1.5c0-.4.1-.7.3-1,.2-.3.6-.5,1-.5s.8.2,1.1.5c.2.3.3.6.3,1s0,1,0,1.5c0,.5,0,.9.1,1.2,0,.3.3.5.6.5.6,0,.9-.4.9-1.1s0-.5-.1-.8c0-.3-.2-.6-.3-.9,0-.3-.1-.5-.1-.8,0-1,.4-1.5,1.3-1.5s.7.1,1,.4c.3.3.5.6.6,1,.2.4.3.8.4,1.3,0,.5.1.9.1,1.3,0,1.3-.3,2.4-.9,3.2-.6.8-1.5,1.2-2.5,1.2s-.9,0-1.3-.3c-.4-.2-.7-.4-1-.7-.3.3-.6.6-1,.8-.4.2-.8.3-1.3.3Z"/>
  <path class="cls-7" d="M233.1,12.6c-.9,0-1.7-.2-2.3-.5s-1.2-.9-1.6-1.5c-.4-.7-.6-1.4-.6-2.2,0-.8.2-1.5.5-2.1.4-.6.9-1.1,1.6-1.5.7-.4,1.5-.6,2.3-.6.8,0,1.6.2,2.3.5.7.4,1.2.9,1.6,1.5.4.6.6,1.4.6,2.2,0,.8-.2,1.5-.6,2.1-.4.6-.9,1.1-1.6,1.5-.7.4-1.5.6-2.3.6ZM233.2,9.9c.3,0,.6-.1.8-.4.3-.3.4-.5.4-.9s-.1-.6-.4-.9c-.2-.3-.5-.4-.8-.4s-.6.1-.9.4-.4.5-.4.9.1.6.4.9c.3.3.5.4.9.4Z"/>
  <path class="cls-7" d="M240.4,12.5c-.4,0-.8-.1-1-.4-.3-.3-.4-.6-.6-1.1-.1-.5-.2-1-.3-1.6s0-1.2,0-1.8,0-.8,0-1.3c0-.4,0-.8.2-1.2.1-.4.3-.7.5-.9.3-.2.6-.4,1.1-.4s.6,0,.9.2c.3.2.4.4.5.7.3-.3.6-.4,1-.5.4-.1.9-.2,1.3-.2s.8,0,1.2.3c.4.2.7.4,1,.8.3.3.4.7.4,1.1s-.1.7-.4,1c-.3.3-.6.5-1.1.5s-.4,0-.5,0c-.1,0-.3-.1-.4-.1-.1,0-.3,0-.4,0-.4,0-.8.2-1.2.5-.4.3-.5.8-.5,1.4s0,.6,0,1c0,.4,0,.7-.2,1,0,.3-.2.6-.5.8-.2.2-.5.3-1,.3Z"/>
  <path class="cls-7" d="M249.6,12.5c-.8,0-1.4-.5-1.7-1.5-.3-1-.5-2.6-.5-4.8s0-2.3.1-3.2c0-.9.3-1.7.6-2.2.3-.5.8-.8,1.4-.8s.8.1,1.1.4c.3.3.4.7.5,1.2,0,.5.2,1.1.2,1.8,0,.7,0,1.5,0,2.3h0c.6-.4,1.2-.8,1.7-1.1.6-.3,1.1-.4,1.5-.4s.6,0,.9.3c.2.2.4.4.5.6.1.2.2.5.2.7,0,.5-.2.9-.5,1.3-.3.4-.7.7-1.3,1.1.2.2.3.4.4.6.1.2.3.4.4.7.2.3.4.6.5,1,.1.3.2.6.2.9s0,.6-.2.8c-.2.2-.3.3-.6.4-.2,0-.4,0-.7,0-.3,0-.7-.2-1-.5-.3-.3-.7-.7-1-1.1-.2-.2-.3-.4-.4-.6-.1-.2-.3-.4-.4-.6-.2,0-.4.1-.5.2,0,.9-.3,1.5-.5,2-.2.4-.6.6-1.1.6Z"/>
  <path class="cls-7" d="M311.2,59.7c-1.2,0-2.2-.2-3-.7-.8-.5-1.4-1.2-1.7-2.3-.1-.4-.2-1-.2-1.6,0-.7,0-1.3,0-2.1s0-1.4,0-2.1c0-.7.2-1.3.4-1.9.2-.6.5-1,.9-1.4.4-.3.9-.5,1.6-.5s.9.1,1.3.4c.3.2.6.6.8,1,.2.4.3.8.3,1.3,0,.9,0,1.8-.3,2.9-.2,1-.3,2-.5,2.9.4-.1.8-.2,1.3-.3.5,0,1,0,1.5,0,.5,0,1,0,1.4.3.4.1.8.4,1,.7.3.3.4.7.4,1.2s-.2,1.1-.5,1.4c-.3.3-.7.6-1.2.7-.5.1-1.1.2-1.7.3-.6,0-1.2,0-1.8,0Z"/>
  <path class="cls-7" d="M321.7,59.7c-.9,0-1.7-.2-2.4-.5-.7-.4-1.2-.8-1.6-1.5-.4-.6-.6-1.3-.6-2.1s.2-1.5.6-2.1c.4-.7.9-1.2,1.5-1.6.7-.4,1.4-.6,2.3-.6s1.5.2,2.1.5c.6.3,1,.7,1.3,1.2.3.5.5,1,.5,1.6s-.1,1-.4,1.4c-.3.3-.6.6-1,.8-.4.2-.8.3-1.3.4-.4,0-.9,0-1.3,0s-.8-.1-1.1-.2c.2.3.5.6.8.7.3.1.7.2,1,.2.4,0,.7,0,1-.1.4,0,.7,0,.9,0,.2.1.4.3.4.6,0,.2,0,.4-.2.6s-.5.4-.9.5c-.4.2-1,.2-1.8.2ZM320.5,54.7c.1.2.3.3.5.4.2,0,.5,0,.7,0,.2,0,.4,0,.6-.2.2-.1.3-.3.3-.5s0-.4-.3-.5c-.2-.2-.4-.3-.8-.3s-.6.1-.8.3c-.2.2-.3.4-.3.6Z"/>
  <path class="cls-7" d="M329.6,59.7c-.6,0-1.1,0-1.6-.3-.5-.2-.9-.4-1.1-.8-.3-.4-.4-.8-.4-1.4s.1-.9.4-1.2.7-.6,1.1-.8c.5-.2,1-.3,1.6-.3s.7,0,1,0c.3,0,.5.1.6.2,0-.3-.1-.5-.3-.7-.2-.2-.6-.3-1.2-.3s-.5,0-.6,0c-.1,0-.3,0-.4.2-.1,0-.2.1-.4.1-.2,0-.4,0-.6,0-.4,0-.7,0-.9-.3-.2-.2-.3-.5-.3-.9s.1-.7.3-1c.2-.3.5-.5.8-.7.3-.2.7-.3,1.1-.4.4,0,.8-.1,1.1-.1,1.1,0,1.9.2,2.6.6.7.4,1.2.9,1.5,1.5.3.6.5,1.3.5,2s0,.8-.1,1.1c0,.3-.2.6-.3.8.2.2.3.3.4.5,0,.2.1.4.1.6,0,.3-.1.6-.3.9-.2.3-.5.4-1,.4s-.6,0-.7-.1c-.2,0-.4-.2-.5-.4-.3.2-.6.3-.9.4-.3,0-.8.1-1.4.1ZM330,57.9c.3,0,.5,0,.6-.2.1-.1.2-.2.2-.4s0-.3-.2-.4c-.1-.1-.3-.2-.6-.2s-.5,0-.6.2c-.1.1-.2.2-.2.4s0,.3.2.4c.2.1.4.2.6.2Z"/>
  <path class="cls-7" d="M339.6,59.7c-.9,0-1.6-.2-2.3-.6-.6-.4-1.1-1-1.5-1.6-.3-.7-.5-1.4-.5-2.1s.2-1.7.6-2.3c.4-.6.9-1,1.4-1.3s1.2-.4,1.8-.4.6,0,.9.1c.3,0,.6.2.9.3,0-.5-.2-1-.3-1.5-.2-.5-.2-1-.2-1.5s.2-.9.5-1.2c.3-.3.7-.4,1-.4s.8.1,1.1.4c.3.3.6.6.8,1.1.2.4.4,1,.5,1.5.1.6.2,1.2.3,1.8,0,.6.1,1.2.1,1.7s0,.5,0,.8c0,.4,0,.8-.2,1.3,0,.4-.2.9-.4,1.4-.2.5-.5.9-.9,1.3-.4.4-.9.7-1.4,1-.6.2-1.3.4-2.2.4ZM339.7,56.9c.3,0,.6-.1.9-.4.2-.3.4-.5.4-.9s-.1-.6-.4-.9c-.2-.3-.5-.4-.9-.4s-.6.1-.9.4c-.2.3-.4.5-.4.9s.1.6.4.9c.3.2.5.4.9.4Z"/>
  <path class="cls-7" d="M350.1,59.7c-.9,0-1.7-.2-2.4-.5-.7-.4-1.2-.8-1.6-1.5-.4-.6-.6-1.3-.6-2.1s.2-1.5.6-2.1c.4-.7.9-1.2,1.5-1.6.7-.4,1.4-.6,2.3-.6s1.5.2,2.1.5c.6.3,1,.7,1.3,1.2.3.5.5,1,.5,1.6s-.1,1-.4,1.4c-.3.3-.6.6-1,.8-.4.2-.8.3-1.3.4-.4,0-.9,0-1.3,0s-.8-.1-1.1-.2c.2.3.5.6.8.7.3.1.7.2,1,.2.4,0,.7,0,1-.1.4,0,.7,0,.9,0,.2.1.4.3.4.6,0,.2,0,.4-.2.6s-.5.4-.9.5c-.4.2-1,.2-1.8.2ZM348.9,54.7c.1.2.3.3.5.4.2,0,.5,0,.7,0,.2,0,.4,0,.6-.2.2-.1.3-.3.3-.5s0-.4-.3-.5c-.2-.2-.4-.3-.8-.3s-.6.1-.8.3c-.2.2-.3.4-.3.6Z"/>
  <path class="cls-7" d="M356.7,59.7c-.4,0-.8-.1-1-.4-.3-.3-.4-.6-.6-1.1-.1-.5-.2-1-.3-1.6s0-1.2,0-1.8,0-.8,0-1.3c0-.4,0-.8.2-1.2.1-.4.3-.7.5-.9.3-.2.6-.4,1.1-.4s.6,0,.9.2c.3.2.4.4.5.7.3-.3.6-.4,1-.5.4-.1.9-.2,1.3-.2s.8,0,1.2.3c.4.2.7.4,1,.8.3.3.4.7.4,1.1s-.1.7-.4,1c-.3.3-.6.5-1.1.5s-.4,0-.5,0c-.1,0-.3-.1-.4-.1-.1,0-.3,0-.4,0-.4,0-.8.2-1.2.5-.4.3-.5.8-.5,1.4s0,.6,0,1c0,.4,0,.7-.2,1,0,.3-.2.6-.5.8-.2.2-.5.3-1,.3Z"/>
  <path class="cls-7" d="M367.2,59.7c-1.1,0-1.9-.2-2.5-.5-.6-.3-.9-.8-.9-1.3s.1-.7.4-.9c.3-.2.6-.3.9-.3s.5,0,.6.1c.1,0,.3.2.4.3.1,0,.2.1.4.1.3,0,.4,0,.4-.3s-.1-.4-.4-.5c-.3-.1-.6-.3-1-.4-.6-.3-1-.6-1.2-1-.3-.4-.4-.8-.4-1.1s.2-.9.5-1.3c.3-.4.8-.7,1.4-1,.6-.3,1.3-.4,2.1-.4s1.3,0,1.9.3c.6.2,1,.4,1.3.8.3.3.5.7.5,1.1s-.1.7-.4.9c-.2.2-.5.3-.9.3s-.4,0-.5,0c-.1,0-.2-.1-.3-.2,0,0-.2-.1-.4-.1s-.2,0-.3.1c0,0-.1.1-.1.2s0,.2,0,.2c0,0,.2.1.3.2.4.1.7.3,1.1.5.4.2.7.4.9.7.2.3.4.7.4,1.1,0,.8-.4,1.4-1.1,1.8-.7.4-1.7.7-2.9.7Z"/>
  <path class="cls-7" d="M374.5,59.7c-.6,0-1.1-.2-1.4-.7-.3-.5-.5-1.2-.6-2.2,0-1-.1-2.3-.1-3.8s0-2.2,0-3c0-.9.2-1.6.5-2,.3-.5.8-.8,1.4-.8s.9.1,1.1.4c.3.3.4.6.5,1,0,.4.2.9.2,1.4,0,.5,0,1,0,1.5.2,0,.4-.2.6-.2.2,0,.5,0,.9,0,.8,0,1.6.2,2.1.6.6.4,1,1,1.3,1.7.3.7.5,1.5.5,2.3s0,.9,0,1.3c0,.4-.1.9-.2,1.2-.1.4-.3.7-.5.9-.2.2-.5.3-.9.3s-.8-.1-1.1-.3c-.2-.2-.4-.5-.4-1,0-.4,0-.9,0-1.4s0-1.2-.2-1.6c-.1-.4-.4-.6-.8-.6s-.7.2-.8.6c-.1.4-.2.9-.2,1.6,0,.5,0,1-.1,1.4,0,.4-.2.7-.4,1-.2.2-.6.4-1.1.4Z"/>
  <path class="cls-7" d="M384.4,51c-.6,0-1.1-.2-1.5-.6-.4-.4-.6-.9-.6-1.6s0-.8.3-1.1c.2-.3.4-.6.8-.8.3-.2.7-.3,1.1-.3s.7,0,1,.3c.3.2.6.5.8.8.2.3.3.7.3,1.1s0,.8-.3,1.1c-.2.3-.5.6-.8.8-.3.2-.7.3-1,.3ZM384.4,59.7c-.5,0-.8-.1-1.1-.4-.2-.3-.4-.7-.5-1.3,0-.6-.1-1.3-.1-2.2,0-.9,0-1.6.1-2.2,0-.6.2-1,.5-1.3.3-.3.6-.4,1.1-.4s.8.1,1.1.4c.2.3.4.7.5,1.3,0,.6.1,1.3.1,2.2,0,.9,0,1.6-.1,2.2,0,.6-.2,1-.5,1.3-.2.3-.6.4-1.1.4Z"/>
  <path class="cls-7" d="M389.3,62.2c-.5,0-.8-.2-1.1-.5-.3-.4-.4-.8-.5-1.4,0-.6-.2-1.2-.2-1.9,0-.7,0-1.3,0-1.9s0-1.1,0-1.7c0-.6,0-1.2.2-1.7.1-.5.3-1,.6-1.3.3-.3.7-.5,1.1-.5s.7,0,.9.2c.2.1.4.3.5.5.3-.2.6-.4,1-.5.4-.1.8-.2,1.3-.2.8,0,1.5.2,2.1.6.6.4,1.2.9,1.5,1.5.4.6.6,1.3.6,2.1s-.2,1.5-.6,2.1c-.4.6-.9,1.2-1.5,1.5-.6.4-1.3.6-2.1.6s-.9,0-1.3-.2c-.4-.1-.7-.3-1-.5,0,.6,0,1.1,0,1.6,0,.5-.2.9-.4,1.2-.2.3-.5.4-1,.4ZM393,56.8c.3,0,.6-.1.8-.4.2-.2.4-.5.4-.8s-.1-.6-.4-.8c-.2-.2-.5-.4-.8-.4s-.6.1-.8.4c-.2.2-.4.5-.4.8s.1.6.4.8c.2.2.5.4.8.4Z"/>
  <path class="cls-7" d="M369.1,168.9c-.6,0-1.1-.2-1.5-.6-.4-.4-.7-1-1-1.9-.2-.9-.3-2-.3-3.5s.2-1.9.5-2.6c.3-.8.7-1.5,1.3-2.1.6-.6,1.2-1,1.9-1.4.7-.3,1.5-.5,2.4-.5,1.4,0,2.4.2,3.1.7.7.5,1.1,1.1,1.1,1.9s-.1,1.1-.4,1.4-.7.5-1.3.6c-.5,0-1.1.1-1.9.1s-.8,0-1.2.2c-.4.1-.7.3-.9.5-.2.2-.4.5-.4.8,0,0,0,.1,0,.2.2,0,.4,0,.6,0h.6c.5,0,1,0,1.5,0,.5,0,1,0,1.4.1.4,0,.8.2,1,.4.3.2.4.5.4.9s-.1.8-.4,1c-.3.2-.6.4-1,.4-.4,0-.9.1-1.4.1-.5,0-1,0-1.5,0s-.4,0-.6,0h-.6c0,.2,0,.3,0,.5,0,.2,0,.4,0,.6,0,.3,0,.7-.1,1,0,.3-.2.6-.5.8-.2.2-.5.3-1,.3Z"/>
  <path class="cls-7" d="M379.4,168.9c-.6,0-1.1-.2-1.4-.7-.3-.5-.5-1.1-.6-2.1,0-.9-.1-2.1-.1-3.5s0-1.8,0-2.5c0-.8.1-1.4.2-2,.1-.6.3-1,.6-1.3.3-.3.7-.5,1.2-.5s.9.2,1.2.5c.3.3.5.7.6,1.3.1.6.2,1.2.3,2,0,.8,0,1.6,0,2.5,0,2.1-.1,3.7-.4,4.7-.3,1-.9,1.5-1.7,1.5Z"/>
  <path class="cls-7" d="M386.9,168.9c-.9,0-1.7-.2-2.4-.5-.7-.4-1.2-.8-1.6-1.5-.4-.6-.6-1.3-.6-2.1s.2-1.5.6-2.1c.4-.7.9-1.2,1.5-1.6.7-.4,1.4-.6,2.3-.6s1.5.2,2.1.5c.6.3,1,.7,1.3,1.2.3.5.5,1,.5,1.6s-.1,1-.4,1.4c-.3.3-.6.6-1,.8-.4.2-.8.3-1.3.4-.4,0-.9,0-1.3,0s-.8-.1-1.1-.2c.2.3.5.6.8.7.3.1.7.2,1,.2.4,0,.7,0,1-.1.4,0,.7,0,.9,0,.2.1.4.3.4.6,0,.2,0,.4-.2.6s-.5.4-.9.5c-.4.2-1,.2-1.8.2ZM385.7,164c.1.2.3.3.5.4.2,0,.5,0,.7,0,.2,0,.4,0,.6-.2.2-.1.3-.3.3-.5s0-.4-.3-.5c-.2-.2-.4-.3-.8-.3s-.6.1-.8.3c-.2.2-.3.4-.3.6Z"/>
  <path class="cls-7" d="M393.3,169c-.5,0-.9,0-1.3-.3-.3-.3-.5-.6-.5-1.1s.1-.8.4-1.3c.3-.5.6-1,1-1.5-.4-.5-.7-.9-1-1.3-.3-.4-.4-.9-.4-1.3s.1-.9.4-1.2c.3-.3.7-.4,1.1-.4s.7.1,1.1.4c.4.3.8.6,1.3,1,.4-.4.9-.8,1.3-1,.4-.3.9-.4,1.3-.4s.8.1,1.1.4c.3.3.4.7.4,1.1,0,.4-.2.9-.5,1.3-.3.5-.6.9-1,1.4.4.5.8,1,1,1.5.3.5.4.9.4,1.2s-.1.8-.4,1.1c-.3.3-.7.4-1.2.4s-.7-.1-1.1-.4-.9-.6-1.3-1c-.4.4-.8.7-1.2.9-.4.2-.7.4-1.1.4Z"/>
  <path class="cls-7" d="M402.6,160.2c-.6,0-1.1-.2-1.5-.6-.4-.4-.6-.9-.6-1.6s0-.8.3-1.1c.2-.3.4-.6.8-.8.3-.2.7-.3,1.1-.3s.7,0,1,.3c.3.2.6.5.8.8.2.3.3.7.3,1.1s0,.8-.3,1.1c-.2.3-.5.6-.8.8-.3.2-.7.3-1,.3ZM402.6,168.9c-.5,0-.8-.1-1.1-.4-.2-.3-.4-.7-.5-1.3,0-.6-.1-1.3-.1-2.2,0-.9,0-1.6.1-2.2,0-.6.2-1,.5-1.3.3-.3.6-.4,1.1-.4s.8.1,1.1.4c.2.3.4.7.5,1.3,0,.6.1,1.3.1,2.2,0,.9,0,1.6-.1,2.2,0,.6-.2,1-.5,1.3-.2.3-.6.4-1.1.4Z"/>
  <path class="cls-7" d="M410.7,168.9c-.9,0-1.6-.1-2.2-.4-.6-.3-1.1-.6-1.4-1-.4-.4-.7-.8-.9-1.3-.2-.5-.4-.9-.5-1.4,0-.5-.2-.9-.2-1.3,0-.4,0-.7,0-.8,0-.5,0-1.1,0-1.7,0-.6.1-1.2.3-1.8.1-.6.3-1.1.5-1.5.2-.5.5-.8.8-1.1.3-.3.7-.4,1.1-.4s.7.1,1,.4c.3.3.5.6.5,1.2s0,1-.3,1.5c-.2.5-.3,1-.3,1.5.3-.2.6-.3.9-.3.3,0,.6-.1.9-.1.6,0,1.3.1,1.8.4s1.1.7,1.4,1.3c.4.6.6,1.4.6,2.3s-.2,1.4-.5,2.1c-.3.7-.8,1.2-1.5,1.6-.6.4-1.4.6-2.3.6ZM410.6,166.1c.3,0,.6-.1.9-.4.3-.3.4-.5.4-.9s-.1-.6-.4-.9-.5-.4-.9-.4-.6.1-.8.4c-.2.3-.4.5-.4.9s.1.6.4.9c.2.2.5.4.8.4Z"/>
  <path class="cls-7" d="M418,168.9c-.6,0-1.1-.2-1.4-.7-.3-.5-.5-1.1-.6-2.1,0-.9-.1-2.1-.1-3.5s0-1.8,0-2.5c0-.8.1-1.4.2-2,.1-.6.3-1,.6-1.3.3-.3.7-.5,1.2-.5s.9.2,1.2.5c.3.3.5.7.6,1.3.1.6.2,1.2.3,2,0,.8,0,1.6,0,2.5,0,2.1-.1,3.7-.4,4.7-.3,1-.9,1.5-1.7,1.5Z"/>
  <path class="cls-7" d="M425.5,168.9c-.9,0-1.7-.2-2.4-.5-.7-.4-1.2-.8-1.6-1.5-.4-.6-.6-1.3-.6-2.1s.2-1.5.6-2.1c.4-.7.9-1.2,1.5-1.6.7-.4,1.4-.6,2.3-.6s1.5.2,2.1.5c.6.3,1,.7,1.3,1.2.3.5.5,1,.5,1.6s-.1,1-.4,1.4c-.3.3-.6.6-1,.8-.4.2-.8.3-1.3.4-.4,0-.9,0-1.3,0s-.8-.1-1.1-.2c.2.3.5.6.8.7.3.1.7.2,1,.2.4,0,.7,0,1-.1.4,0,.7,0,.9,0,.2.1.4.3.4.6,0,.2,0,.4-.2.6s-.5.4-.9.5c-.4.2-1,.2-1.8.2ZM424.3,164c.1.2.3.3.5.4.2,0,.5,0,.7,0,.2,0,.4,0,.6-.2.2-.1.3-.3.3-.5s0-.4-.3-.5c-.2-.2-.4-.3-.8-.3s-.6.1-.8.3c-.2.2-.3.4-.3.6Z"/>
  <path class="cls-7" d="M332.5,277.9c-1.1,0-2.2-.2-3.1-.7-.9-.5-1.7-1.2-2.2-2.1-.5-.9-.8-2.1-.8-3.5s.1-1.6.4-2.4c.3-.8.7-1.4,1.2-2,.5-.6,1.1-1,1.8-1.4.7-.3,1.5-.5,2.3-.5s2,.2,2.8.6c.8.4,1.4.9,1.9,1.6.4.7.7,1.4.7,2.3s0,.6-.2.9-.3.5-.6.7c-.3.2-.6.3-1,.3s-.7,0-.9-.2c-.2-.1-.4-.3-.6-.4-.2-.2-.3-.4-.5-.5-.2-.2-.3-.3-.6-.4-.2-.1-.5-.2-.9-.2s-.7,0-1,.3c-.3.2-.6.5-.8.8-.2.3-.3.7-.3,1.1,0,.6.2,1.2.5,1.6.3.5.8.7,1.4.7s.8,0,1.1-.2c.3-.2.5-.3.7-.5.2-.2.4-.3.6-.5.2-.2.5-.2.9-.2.5,0,.9.2,1.2.5.3.3.4.8.4,1.3,0,.5-.3,1-.7,1.5-.4.5-.9.8-1.6,1.1-.7.3-1.4.4-2.3.4Z"/>
  <path class="cls-7" d="M342.9,278c-.9,0-1.7-.2-2.3-.5s-1.2-.9-1.6-1.5c-.4-.7-.6-1.4-.6-2.2,0-.8.2-1.5.5-2.1.4-.6.9-1.1,1.6-1.5.7-.4,1.5-.6,2.3-.6.8,0,1.6.2,2.3.5.7.4,1.2.9,1.6,1.5.4.6.6,1.4.6,2.2,0,.8-.2,1.5-.6,2.1-.4.6-.9,1.1-1.6,1.5-.7.4-1.5.6-2.3.6ZM343,275.4c.3,0,.6-.1.8-.4.3-.3.4-.5.4-.9s-.1-.6-.4-.9c-.2-.3-.5-.4-.8-.4s-.6.1-.9.4-.4.5-.4.9.1.6.4.9c.3.3.5.4.9.4Z"/>
  <path class="cls-7" d="M354.3,278c-.6,0-1-.2-1.1-.6-.2-.4-.3-1-.3-1.7s0-1.1,0-1.5c0-.4-.2-.6-.5-.6s-.4,0-.5.3c0,.2-.2.4-.2.7,0,.3,0,.7,0,1.1s0,.8,0,1.1c0,.3-.2.6-.4.8-.2.2-.5.3-.9.3s-.8-.1-1-.4c-.3-.3-.4-.7-.6-1.2-.1-.5-.2-1-.3-1.6,0-.6,0-1.2,0-1.7,0-1,0-1.8.3-2.5.2-.7.6-1.1,1.1-1.3.4-.1.7-.1,1,0,.3,0,.5.3.6.5.1,0,.3-.1.4-.2.2,0,.4-.1.8-.1s.7,0,1.1.3c.3.2.6.4.8.8.3-.3.6-.6.9-.8.3-.2.8-.3,1.3-.3.8,0,1.4.2,1.9.7.5.4,1,1,1.3,1.8s.4,1.6.4,2.5,0,1.1-.2,1.7c0,.5-.3,1-.5,1.3-.3.3-.6.5-1.1.5s-.7,0-.9-.3c-.2-.2-.3-.5-.4-.8,0-.3,0-.7,0-1.1s0-.8,0-1.1c0-.3,0-.5-.1-.7,0-.2-.3-.3-.5-.3s-.3,0-.4.3c0,.2-.1.4-.1.7,0,.3,0,.7,0,1.1,0,.7-.1,1.3-.3,1.7-.2.4-.6.6-1.1.6Z"/>
  <path class="cls-7" d="M367.2,278c-.6,0-1-.2-1.1-.6-.2-.4-.3-1-.3-1.7s0-1.1,0-1.5c0-.4-.2-.6-.5-.6s-.4,0-.5.3c0,.2-.2.4-.2.7,0,.3,0,.7,0,1.1s0,.8,0,1.1c0,.3-.2.6-.4.8-.2.2-.5.3-.9.3s-.8-.1-1-.4c-.3-.3-.4-.7-.6-1.2-.1-.5-.2-1-.3-1.6,0-.6,0-1.2,0-1.7,0-1,0-1.8.3-2.5.2-.7.6-1.1,1.1-1.3.4-.1.7-.1,1,0,.3,0,.5.3.6.5.1,0,.3-.1.4-.2.2,0,.4-.1.8-.1s.7,0,1.1.3c.3.2.6.4.8.8.3-.3.6-.6.9-.8.3-.2.8-.3,1.3-.3.8,0,1.4.2,1.9.7.5.4,1,1,1.3,1.8s.4,1.6.4,2.5,0,1.1-.2,1.7c0,.5-.3,1-.5,1.3-.3.3-.6.5-1.1.5s-.7,0-.9-.3c-.2-.2-.3-.5-.4-.8,0-.3,0-.7,0-1.1s0-.8,0-1.1c0-.3,0-.5-.1-.7,0-.2-.3-.3-.5-.3s-.3,0-.4.3c0,.2-.1.4-.1.7,0,.3,0,.7,0,1.1,0,.7-.1,1.3-.3,1.7-.2.4-.6.6-1.1.6Z"/>
  <path class="cls-7" d="M378.4,278c-.9,0-1.7-.2-2.3-.6-.7-.4-1.2-1.1-1.5-1.8-.3-.8-.5-1.7-.5-2.7s.2-1.8.5-2.4c.3-.6.8-.9,1.4-.9s.7,0,1,.2c.2.2.4.3.4.6,0,.2.1.5.1.8s0,.7,0,1c0,.3,0,.7,0,1.1,0,.6.1,1,.4,1.2.2.3.5.4.8.4s.5-.1.8-.4c.2-.3.3-.7.3-1.2s0-.7,0-1c0-.3,0-.7,0-1.1s0-.8.3-1.1c.2-.3.6-.5,1.2-.5s1,.3,1.3.9c.3.6.5,1.4.5,2.4s-.2,1.9-.5,2.7c-.3.8-.8,1.4-1.4,1.8-.6.4-1.4.6-2.4.6Z"/>
  <path class="cls-7" d="M390.7,278c-.5,0-.8-.1-1-.4-.2-.3-.3-.6-.4-1,0-.4,0-.8,0-1.3,0-.6,0-1.2-.3-1.5-.2-.4-.5-.6-.9-.6s-.7.2-.9.6c-.2.4-.3.9-.3,1.5s0,.8,0,1.2c0,.4-.1.7-.3,1-.2.3-.5.4-1,.4s-.7-.1-.9-.4c-.2-.3-.4-.6-.6-1.1-.1-.4-.2-.9-.3-1.4,0-.5,0-1,0-1.5s0-1,0-1.5.1-1,.3-1.4c.1-.4.3-.8.5-1,.3-.3.6-.4.9-.4.7,0,1.1.3,1.3.9.2-.2.4-.3.7-.4.3-.1.7-.2,1.1-.2.9,0,1.7.2,2.3.7.6.5,1,1.1,1.3,1.9.3.8.4,1.8.4,2.8,0,.6,0,1.1-.2,1.5,0,.4-.3.8-.5,1.1-.2.3-.6.4-1,.4Z"/>
  <path class="cls-7" d="M395.4,269.3c-.6,0-1.1-.2-1.5-.6-.4-.4-.6-.9-.6-1.6s0-.8.3-1.1c.2-.3.4-.6.8-.8.3-.2.7-.3,1.1-.3s.7,0,1,.3c.3.2.6.5.8.8.2.3.3.7.3,1.1s0,.8-.3,1.1c-.2.3-.5.6-.8.8-.3.2-.7.3-1,.3ZM395.4,278c-.5,0-.8-.1-1.1-.4-.2-.3-.4-.7-.5-1.3,0-.6-.1-1.3-.1-2.2,0-.9,0-1.6.1-2.2,0-.6.2-1,.5-1.3.3-.3.6-.4,1.1-.4s.8.1,1.1.4c.2.3.4.7.5,1.3,0,.6.1,1.3.1,2.2,0,.9,0,1.6-.1,2.2,0,.6-.2,1-.5,1.3-.2.3-.6.4-1.1.4Z"/>
  <path class="cls-7" d="M402.8,278c-.8,0-1.5-.2-2.1-.6-.7-.4-1.2-.9-1.6-1.5-.4-.7-.6-1.4-.6-2.2s.2-1.6.6-2.2c.4-.6.9-1.1,1.6-1.4.7-.3,1.4-.5,2.1-.5s1.4.1,2,.4c.6.3,1,.7,1.3,1.1.3.5.5.9.5,1.4s-.1.7-.4,1c-.2.2-.6.3-1.1.3s-.5,0-.7-.2c-.1-.1-.3-.2-.4-.4,0-.2-.2-.3-.4-.4-.1-.1-.3-.2-.6-.2s-.6.1-.8.3c-.2.2-.4.5-.4.9s.1.6.3.9c.2.2.5.3.8.3s.4,0,.6-.1c.1,0,.3-.2.4-.3.1-.1.2-.2.4-.3.2,0,.4-.1.7-.1.5,0,.9.1,1.1.4.3.3.4.6.4.9s-.2.8-.5,1.1c-.3.3-.7.6-1.3.9-.6.2-1.2.3-2,.3Z"/>
  <path class="cls-7" d="M410.7,278c-.6,0-1.1,0-1.6-.3-.5-.2-.9-.4-1.1-.8-.3-.4-.4-.8-.4-1.4s.1-.9.4-1.2.7-.6,1.1-.8c.5-.2,1-.3,1.6-.3s.7,0,1,0c.3,0,.5.1.6.2,0-.3-.1-.5-.3-.7-.2-.2-.6-.3-1.2-.3s-.5,0-.6,0c-.1,0-.3,0-.4.2-.1,0-.2.1-.4.1-.2,0-.4,0-.6,0-.4,0-.7,0-.9-.3-.2-.2-.3-.5-.3-.9s.1-.7.3-1c.2-.3.5-.5.8-.7.3-.2.7-.3,1.1-.4.4,0,.8-.1,1.1-.1,1.1,0,1.9.2,2.6.6.7.4,1.2.9,1.5,1.5.3.6.5,1.3.5,2s0,.8-.1,1.1c0,.3-.2.6-.3.8.2.2.3.3.4.5,0,.2.1.4.1.6,0,.3-.1.6-.3.9-.2.3-.5.4-1,.4s-.6,0-.7-.1c-.2,0-.4-.2-.5-.4-.3.2-.6.3-.9.4-.3,0-.8.1-1.4.1ZM411.1,276.2c.3,0,.5,0,.6-.2.1-.1.2-.2.2-.4s0-.3-.2-.4c-.1-.1-.3-.2-.6-.2s-.5,0-.6.2c-.1.1-.2.2-.2.4s0,.3.2.4c.2.1.4.2.6.2Z"/>
  <path class="cls-7" d="M422,278c-.4,0-.8,0-1.3-.3-.4-.2-.8-.4-1.2-.7-.3-.3-.6-.7-.7-1.2-.1-.3-.2-.7-.3-1.1,0-.4,0-.9-.1-1.4,0-.5,0-1,0-1.5-.5,0-.9,0-1.3-.1-.4,0-.8-.2-1-.4-.3-.2-.4-.5-.4-.9s.1-.8.4-1c.3-.2.6-.4,1-.5.4,0,.9-.1,1.4-.1,0-.4,0-.8.1-1.1,0-.4.1-.8.3-1.1.1-.3.3-.6.6-.8.2-.2.5-.3.9-.3s.9.2,1.1.5c.2.3.4.7.4,1.3,0,.5,0,1.1,0,1.6.6,0,1.2,0,1.6,0,.5,0,.9.2,1.1.4.3.2.4.5.4,1s-.2.8-.5,1c-.3.2-.7.4-1.2.5-.5,0-1,.1-1.6.1,0,.2,0,.5,0,.7v.8c0,.7,0,1.2.1,1.4,0,.2.2.4.3.4.1,0,.3,0,.5.1.2,0,.4,0,.7.1.3,0,.5.2.6.5.2.2.2.5.2.9s-.2.7-.6,1c-.4.2-1,.3-1.7.3Z"/>
  <path class="cls-7" d="M428.2,269.3c-.6,0-1.1-.2-1.5-.6-.4-.4-.6-.9-.6-1.6s0-.8.3-1.1c.2-.3.4-.6.8-.8.3-.2.7-.3,1.1-.3s.7,0,1,.3c.3.2.6.5.8.8.2.3.3.7.3,1.1s0,.8-.3,1.1c-.2.3-.5.6-.8.8-.3.2-.7.3-1,.3ZM428.2,278c-.5,0-.8-.1-1.1-.4-.2-.3-.4-.7-.5-1.3,0-.6-.1-1.3-.1-2.2,0-.9,0-1.6.1-2.2,0-.6.2-1,.5-1.3.3-.3.6-.4,1.1-.4s.8.1,1.1.4c.2.3.4.7.5,1.3,0,.6.1,1.3.1,2.2,0,.9,0,1.6-.1,2.2,0,.6-.2,1-.5,1.3-.2.3-.6.4-1.1.4Z"/>
  <path class="cls-7" d="M435.6,278c-.9,0-1.7-.2-2.3-.5s-1.2-.9-1.6-1.5c-.4-.7-.6-1.4-.6-2.2,0-.8.2-1.5.5-2.1.4-.6.9-1.1,1.6-1.5.7-.4,1.5-.6,2.3-.6.8,0,1.6.2,2.3.5.7.4,1.2.9,1.6,1.5.4.6.6,1.4.6,2.2,0,.8-.2,1.5-.6,2.1-.4.6-.9,1.1-1.6,1.5-.7.4-1.5.6-2.3.6ZM435.7,275.4c.3,0,.6-.1.8-.4.3-.3.4-.5.4-.9s-.1-.6-.4-.9c-.2-.3-.5-.4-.8-.4s-.6.1-.9.4-.4.5-.4.9.1.6.4.9c.3.3.5.4.9.4Z"/>
  <path class="cls-7" d="M448.1,278c-.5,0-.8-.1-1-.4-.2-.3-.3-.6-.4-1,0-.4,0-.8,0-1.3,0-.6,0-1.2-.3-1.5-.2-.4-.5-.6-.9-.6s-.7.2-.9.6c-.2.4-.3.9-.3,1.5s0,.8,0,1.2c0,.4-.1.7-.3,1-.2.3-.5.4-1,.4s-.7-.1-.9-.4c-.2-.3-.4-.6-.6-1.1-.1-.4-.2-.9-.3-1.4,0-.5,0-1,0-1.5s0-1,0-1.5.1-1,.3-1.4c.1-.4.3-.8.5-1,.3-.3.6-.4.9-.4.7,0,1.1.3,1.3.9.2-.2.4-.3.7-.4.3-.1.7-.2,1.1-.2.9,0,1.7.2,2.3.7.6.5,1,1.1,1.3,1.9.3.8.4,1.8.4,2.8,0,.6,0,1.1-.2,1.5,0,.4-.3.8-.5,1.1-.2.3-.6.4-1,.4Z"/>
  <path class="cls-7" d="M155.8,328.4c-.5,0-1-.2-1.3-.5-.3-.4-.6-.8-.8-1.4-.2-.6-.3-1.3-.4-2,0-.7,0-1.4,0-2.1s.1-1.6.3-2.4c.2-.8.6-1.5,1-2.1.5-.6,1.1-1.1,1.8-1.5.7-.4,1.5-.6,2.5-.6s1.9.2,2.6.6c.8.4,1.4,1,1.9,1.8.5.8.7,1.6.7,2.7s-.1,1.7-.4,2.4c-.3.7-.7,1.2-1.1,1.6-.5.4-1,.7-1.6.9-.6.2-1.2.3-1.8.3-.6,0-1.2-.1-1.7-.4,0,.3,0,.6,0,.9,0,.3,0,.6-.1.8,0,.3-.3.5-.5.6-.3.2-.6.2-1.1.2ZM159,323.4c.4,0,.8-.2,1.1-.5s.5-.7.5-1.1-.2-.8-.5-1.1c-.3-.3-.7-.5-1.1-.5s-.8.2-1.1.5c-.3.3-.5.7-.5,1.1s.2.8.5,1.1c.3.3.7.5,1.1.5Z"/>
  <path class="cls-7" d="M166.9,328.4c-.4,0-.8-.1-1-.4-.3-.3-.4-.6-.6-1.1-.1-.5-.2-1-.3-1.6s0-1.2,0-1.8,0-.8,0-1.3c0-.4,0-.8.2-1.2.1-.4.3-.7.5-.9.3-.2.6-.4,1.1-.4s.6,0,.9.2c.3.2.4.4.5.7.3-.3.6-.4,1-.5.4-.1.9-.2,1.3-.2s.8,0,1.2.3c.4.2.7.4,1,.8.3.3.4.7.4,1.1s-.1.7-.4,1c-.3.3-.6.5-1.1.5s-.4,0-.5,0c-.1,0-.3-.1-.4-.1-.1,0-.3,0-.4,0-.4,0-.8.2-1.2.5-.4.3-.5.8-.5,1.4s0,.6,0,1c0,.4,0,.7-.2,1,0,.3-.2.6-.5.8-.2.2-.5.3-1,.3Z"/>
  <path class="cls-7" d="M178.5,328.4c-.9,0-1.7-.2-2.3-.5s-1.2-.9-1.6-1.5c-.4-.7-.6-1.4-.6-2.2,0-.8.2-1.5.5-2.1.4-.6.9-1.1,1.6-1.5.7-.4,1.5-.6,2.3-.6.8,0,1.6.2,2.3.5.7.4,1.2.9,1.6,1.5.4.6.6,1.4.6,2.2,0,.8-.2,1.5-.6,2.1-.4.6-.9,1.1-1.6,1.5-.7.4-1.5.6-2.3.6ZM178.5,325.8c.3,0,.6-.1.8-.4.3-.3.4-.5.4-.9s-.1-.6-.4-.9c-.2-.3-.5-.4-.8-.4s-.6.1-.9.4-.4.5-.4.9.1.6.4.9c.3.3.5.4.9.4Z"/>
  <path class="cls-7" d="M189,328.4c-.9,0-1.6-.1-2.2-.4-.6-.3-1.1-.6-1.4-1-.4-.4-.7-.8-.9-1.3-.2-.5-.4-.9-.5-1.4,0-.5-.2-.9-.2-1.3,0-.4,0-.7,0-.8,0-.5,0-1.1,0-1.7,0-.6.1-1.2.3-1.8.1-.6.3-1.1.5-1.5.2-.5.5-.8.8-1.1.3-.3.7-.4,1.1-.4s.7.1,1,.4c.3.3.5.6.5,1.2s0,1-.3,1.5c-.2.5-.3,1-.3,1.5.3-.2.6-.3.9-.3.3,0,.6-.1.9-.1.6,0,1.3.1,1.8.4s1.1.7,1.4,1.3c.4.6.6,1.4.6,2.3s-.2,1.4-.5,2.1c-.3.7-.8,1.2-1.5,1.6-.6.4-1.4.6-2.3.6ZM188.9,325.6c.3,0,.6-.1.9-.4.3-.3.4-.5.4-.9s-.1-.6-.4-.9-.5-.4-.9-.4-.6.1-.8.4c-.2.3-.4.5-.4.9s.1.6.4.9c.2.2.5.4.8.4Z"/>
  <path class="cls-7" d="M196.3,328.4c-.6,0-1.1-.2-1.4-.7-.3-.5-.5-1.1-.6-2.1,0-.9-.1-2.1-.1-3.5s0-1.8,0-2.5c0-.8.1-1.4.2-2,.1-.6.3-1,.6-1.3.3-.3.7-.5,1.2-.5s.9.2,1.2.5c.3.3.5.7.6,1.3.1.6.2,1.2.3,2,0,.8,0,1.6,0,2.5,0,2.1-.1,3.7-.4,4.7-.3,1-.9,1.5-1.7,1.5Z"/>
  <path class="cls-7" d="M203.8,328.4c-.9,0-1.7-.2-2.4-.5-.7-.4-1.2-.8-1.6-1.5-.4-.6-.6-1.3-.6-2.1s.2-1.5.6-2.1c.4-.7.9-1.2,1.5-1.6.7-.4,1.4-.6,2.3-.6s1.5.2,2.1.5c.6.3,1,.7,1.3,1.2.3.5.5,1,.5,1.6s-.1,1-.4,1.4c-.3.3-.6.6-1,.8-.4.2-.8.3-1.3.4-.4,0-.9,0-1.3,0s-.8-.1-1.1-.2c.2.3.5.6.8.7.3.1.7.2,1,.2.4,0,.7,0,1-.1.4,0,.7,0,.9,0,.2.1.4.3.4.6,0,.2,0,.4-.2.6s-.5.4-.9.5c-.4.2-1,.2-1.8.2ZM202.6,323.4c.1.2.3.3.5.4.2,0,.5,0,.7,0,.2,0,.4,0,.6-.2.2-.1.3-.3.3-.5s0-.4-.3-.5c-.2-.2-.4-.3-.8-.3s-.6.1-.8.3c-.2.2-.3.4-.3.6Z"/>
  <path class="cls-7" d="M214.5,328.4c-.6,0-1-.2-1.1-.6-.2-.4-.3-1-.3-1.7s0-1.1,0-1.5c0-.4-.2-.6-.5-.6s-.4,0-.5.3c0,.2-.2.4-.2.7,0,.3,0,.7,0,1.1s0,.8,0,1.1c0,.3-.2.6-.4.8-.2.2-.5.3-.9.3s-.8-.1-1-.4c-.3-.3-.4-.7-.6-1.2-.1-.5-.2-1-.3-1.6,0-.6,0-1.2,0-1.7,0-1,0-1.8.3-2.5.2-.7.6-1.1,1.1-1.3.4-.1.7-.1,1,0,.3,0,.5.3.6.5.1,0,.3-.1.4-.2.2,0,.4-.1.8-.1s.7,0,1.1.3c.3.2.6.4.8.8.3-.3.6-.6.9-.8.3-.2.8-.3,1.3-.3.8,0,1.4.2,1.9.7.5.4,1,1,1.3,1.8s.4,1.6.4,2.5,0,1.1-.2,1.7c0,.5-.3,1-.5,1.3-.3.3-.6.5-1.1.5s-.7,0-.9-.3c-.2-.2-.3-.5-.4-.8,0-.3,0-.7,0-1.1s0-.8,0-1.1c0-.3,0-.5-.1-.7,0-.2-.3-.3-.5-.3s-.3,0-.4.3c0,.2-.1.4-.1.7,0,.3,0,.7,0,1.1,0,.7-.1,1.3-.3,1.7-.2.4-.6.6-1.1.6Z"/>
  <path class="cls-7" d="M224.8,328.4c-1.1,0-1.9-.2-2.5-.5-.6-.3-.9-.8-.9-1.3s.1-.7.4-.9c.3-.2.6-.3.9-.3s.5,0,.6.1c.1,0,.3.2.4.3.1,0,.2.1.4.1.3,0,.4,0,.4-.3s-.1-.4-.4-.5c-.3-.1-.6-.3-1-.4-.6-.3-1-.6-1.2-1-.3-.4-.4-.8-.4-1.1s.2-.9.5-1.3c.3-.4.8-.7,1.4-1,.6-.3,1.3-.4,2.1-.4s1.3,0,1.9.3c.6.2,1,.4,1.3.8.3.3.5.7.5,1.1s-.1.7-.4.9c-.2.2-.5.3-.9.3s-.4,0-.5,0c-.1,0-.2-.1-.3-.2,0,0-.2-.1-.4-.1s-.2,0-.3.1c0,0-.1.1-.1.2s0,.2,0,.2c0,0,.2.1.3.2.4.1.7.3,1.1.5.4.2.7.4.9.7.2.3.4.7.4,1.1,0,.8-.4,1.4-1.1,1.8-.7.4-1.7.7-2.9.7Z"/>
  <path class="cls-7" d="M234.3,328.4c-.9,0-1.7-.2-2.3-.5s-1.2-.9-1.6-1.5c-.4-.7-.6-1.4-.6-2.2,0-.8.2-1.5.5-2.1.4-.6.9-1.1,1.6-1.5.7-.4,1.5-.6,2.3-.6.8,0,1.6.2,2.3.5.7.4,1.2.9,1.6,1.5.4.6.6,1.4.6,2.2,0,.8-.2,1.5-.6,2.1-.4.6-.9,1.1-1.6,1.5-.7.4-1.5.6-2.3.6ZM234.4,325.8c.3,0,.6-.1.8-.4.3-.3.4-.5.4-.9s-.1-.6-.4-.9c-.2-.3-.5-.4-.8-.4s-.6.1-.9.4-.4.5-.4.9.1.6.4.9c.3.3.5.4.9.4Z"/>
  <path class="cls-7" d="M241.8,328.4c-.6,0-1.1-.2-1.4-.7-.3-.5-.5-1.1-.6-2.1,0-.9-.1-2.1-.1-3.5s0-1.8,0-2.5c0-.8.1-1.4.2-2,.1-.6.3-1,.6-1.3.3-.3.7-.5,1.2-.5s.9.2,1.2.5c.3.3.5.7.6,1.3.1.6.2,1.2.3,2,0,.8,0,1.6,0,2.5,0,2.1-.1,3.7-.4,4.7-.3,1-.9,1.5-1.7,1.5Z"/>
  <path class="cls-7" d="M249.5,328.4c-.2,0-.5,0-.8,0-.3,0-.6-.2-1-.5-.3-.2-.6-.6-.9-1-.3-.5-.7-1-1-1.6-.3-.6-.6-1.2-.8-1.8-.2-.6-.3-1.2-.3-1.7s.1-.9.4-1.3c.3-.3.6-.5,1-.5s.8.1,1.1.4c.3.3.6.7.8,1.1.2.5.4,1,.6,1.5.2.6.4,1.1.6,1.7.2-.6.4-1.1.6-1.7.2-.6.4-1.1.7-1.5.3-.5.5-.8.8-1.1.3-.3.7-.4,1.1-.4.3,0,.7.2.9.4.3.3.4.7.4,1.2s-.1,1.2-.3,1.8c-.2.6-.4,1.2-.8,1.7-.3.5-.6,1-.9,1.4-.3.4-.5.7-.7.9-.3.3-.6.5-.9.7-.3.2-.7.3-1,.3Z"/>
  <path class="cls-7" d="M257,319.7c-.6,0-1.1-.2-1.5-.6-.4-.4-.6-.9-.6-1.6s0-.8.3-1.1c.2-.3.4-.6.8-.8.3-.2.7-.3,1.1-.3s.7,0,1,.3c.3.2.6.5.8.8.2.3.3.7.3,1.1s0,.8-.3,1.1c-.2.3-.5.6-.8.8-.3.2-.7.3-1,.3ZM257,328.4c-.5,0-.8-.1-1.1-.4-.2-.3-.4-.7-.5-1.3,0-.6-.1-1.3-.1-2.2,0-.9,0-1.6.1-2.2,0-.6.2-1,.5-1.3.3-.3.6-.4,1.1-.4s.8.1,1.1.4c.2.3.4.7.5,1.3,0,.6.1,1.3.1,2.2,0,.9,0,1.6-.1,2.2,0,.6-.2,1-.5,1.3-.2.3-.6.4-1.1.4Z"/>
  <path class="cls-7" d="M267.1,328.4c-.5,0-.8-.1-1-.4-.2-.3-.3-.6-.4-1,0-.4,0-.8,0-1.3,0-.6,0-1.2-.3-1.5-.2-.4-.5-.6-.9-.6s-.7.2-.9.6c-.2.4-.3.9-.3,1.5s0,.8,0,1.2c0,.4-.1.7-.3,1-.2.3-.5.4-1,.4s-.7-.1-.9-.4c-.2-.3-.4-.6-.6-1.1-.1-.4-.2-.9-.3-1.4,0-.5,0-1,0-1.5s0-1,0-1.5.1-1,.3-1.4c.1-.4.3-.8.5-1,.3-.3.6-.4.9-.4.7,0,1.1.3,1.3.9.2-.2.4-.3.7-.4.3-.1.7-.2,1.1-.2.9,0,1.7.2,2.3.7.6.5,1,1.1,1.3,1.9.3.8.4,1.8.4,2.8,0,.6,0,1.1-.2,1.5,0,.4-.3.8-.5,1.1-.2.3-.6.4-1,.4Z"/>
  <path class="cls-7" d="M273.6,331.5c-.7,0-1.2-.1-1.7-.4-.5-.3-.7-.6-.7-1s.2-.8.6-1.1c.4-.3.9-.3,1.5-.2.7,0,1.2,0,1.8-.1.5-.2.8-.4.9-.8-.2.1-.5.2-.8.3-.3,0-.7.1-1.1.1-.8,0-1.5-.1-2.1-.4-.6-.3-1-.6-1.3-1-.3-.4-.6-.8-.7-1.2-.1-.4-.2-.8-.2-1.2,0-1,.2-1.8.6-2.5.4-.7,1-1.2,1.6-1.5.7-.3,1.3-.5,2-.5s.5,0,.8,0c.3,0,.6,0,.8.1,0-.3.3-.5.5-.7.2-.2.6-.3,1.1-.3s.8.1,1.1.4.5.7.7,1.2c.2.5.3,1,.4,1.6,0,.6,0,1.2,0,1.9,0,.6,0,1.2,0,1.8-.1,1.1-.4,2.1-.9,2.9-.5.8-1.1,1.4-1.9,1.9-.8.4-1.7.7-2.8.7ZM274.2,325.5c.4,0,.7-.1,1-.4.3-.3.4-.6.4-1s-.1-.7-.4-1c-.3-.3-.6-.4-1-.4s-.7.1-1,.4c-.3.3-.4.6-.4,1s.1.7.4,1c.3.3.6.4,1,.4Z"/>
  <path class="cls-7" d="M30.2,277.9c-1.1,0-2.2-.2-3.1-.7-.9-.5-1.7-1.2-2.2-2.1-.5-.9-.8-2.1-.8-3.5s.1-1.6.4-2.4c.3-.8.7-1.4,1.2-2,.5-.6,1.1-1,1.8-1.4.7-.3,1.5-.5,2.3-.5s2,.2,2.8.6c.8.4,1.4.9,1.9,1.6.4.7.7,1.4.7,2.3s0,.6-.2.9-.3.5-.6.7c-.3.2-.6.3-1,.3s-.7,0-.9-.2c-.2-.1-.4-.3-.6-.4-.2-.2-.3-.4-.5-.5-.2-.2-.3-.3-.6-.4-.2-.1-.5-.2-.9-.2s-.7,0-1,.3c-.3.2-.6.5-.8.8-.2.3-.3.7-.3,1.1,0,.6.2,1.2.5,1.6.3.5.8.7,1.4.7s.8,0,1.1-.2c.3-.2.5-.3.7-.5.2-.2.4-.3.6-.5.2-.2.5-.2.9-.2.5,0,.9.2,1.2.5.3.3.4.8.4,1.3,0,.5-.3,1-.7,1.5-.4.5-.9.8-1.6,1.1-.7.3-1.4.4-2.3.4Z"/>
  <path class="cls-7" d="M38.1,278c-.4,0-.8-.1-1-.4-.3-.3-.4-.6-.6-1.1-.1-.5-.2-1-.3-1.6s0-1.2,0-1.8,0-.8,0-1.3c0-.4,0-.8.2-1.2.1-.4.3-.7.5-.9.3-.2.6-.4,1.1-.4s.6,0,.9.2c.3.2.4.4.5.7.3-.3.6-.4,1-.5.4-.1.9-.2,1.3-.2s.8,0,1.2.3c.4.2.7.4,1,.8.3.3.4.7.4,1.1s-.1.7-.4,1c-.3.3-.6.5-1.1.5s-.4,0-.5,0c-.1,0-.3-.1-.4-.1-.1,0-.3,0-.4,0-.4,0-.8.2-1.2.5-.4.3-.5.8-.5,1.4s0,.6,0,1c0,.4,0,.7-.2,1,0,.3-.2.6-.5.8-.2.2-.5.3-1,.3Z"/>
  <path class="cls-7" d="M49.6,278c-.9,0-1.7-.2-2.4-.5-.7-.4-1.2-.8-1.6-1.5-.4-.6-.6-1.3-.6-2.1s.2-1.5.6-2.1c.4-.7.9-1.2,1.5-1.6.7-.4,1.4-.6,2.3-.6s1.5.2,2.1.5c.6.3,1,.7,1.3,1.2.3.5.5,1,.5,1.6s-.1,1-.4,1.4c-.3.3-.6.6-1,.8-.4.2-.8.3-1.3.4-.4,0-.9,0-1.3,0s-.8-.1-1.1-.2c.2.3.5.6.8.7.3.1.7.2,1,.2.4,0,.7,0,1-.1.4,0,.7,0,.9,0,.2.1.4.3.4.6,0,.2,0,.4-.2.6s-.5.4-.9.5c-.4.2-1,.2-1.8.2ZM48.4,273c.1.2.3.3.5.4.2,0,.5,0,.7,0,.2,0,.4,0,.6-.2.2-.1.3-.3.3-.5s0-.4-.3-.5c-.2-.2-.4-.3-.8-.3s-.6.1-.8.3c-.2.2-.3.4-.3.6Z"/>
  <path class="cls-7" d="M57.5,278c-.6,0-1.1,0-1.6-.3-.5-.2-.9-.4-1.1-.8-.3-.4-.4-.8-.4-1.4s.1-.9.4-1.2.7-.6,1.1-.8c.5-.2,1-.3,1.6-.3s.7,0,1,0c.3,0,.5.1.6.2,0-.3-.1-.5-.3-.7-.2-.2-.6-.3-1.2-.3s-.5,0-.6,0c-.1,0-.3,0-.4.2-.1,0-.2.1-.4.1-.2,0-.4,0-.6,0-.4,0-.7,0-.9-.3-.2-.2-.3-.5-.3-.9s.1-.7.3-1c.2-.3.5-.5.8-.7.3-.2.7-.3,1.1-.4.4,0,.8-.1,1.1-.1,1.1,0,1.9.2,2.6.6.7.4,1.2.9,1.5,1.5.3.6.5,1.3.5,2s0,.8-.1,1.1c0,.3-.2.6-.3.8.2.2.3.3.4.5,0,.2.1.4.1.6,0,.3-.1.6-.3.9-.2.3-.5.4-1,.4s-.6,0-.7-.1c-.2,0-.4-.2-.5-.4-.3.2-.6.3-.9.4-.3,0-.8.1-1.4.1ZM57.9,276.2c.3,0,.5,0,.6-.2.1-.1.2-.2.2-.4s0-.3-.2-.4c-.1-.1-.3-.2-.6-.2s-.5,0-.6.2c-.1.1-.2.2-.2.4s0,.3.2.4c.2.1.4.2.6.2Z"/>
  <path class="cls-7" d="M68.8,278c-.4,0-.8,0-1.3-.3-.4-.2-.8-.4-1.2-.7-.3-.3-.6-.7-.7-1.2-.1-.3-.2-.7-.3-1.1,0-.4,0-.9-.1-1.4,0-.5,0-1,0-1.5-.5,0-.9,0-1.3-.1-.4,0-.8-.2-1-.4-.3-.2-.4-.5-.4-.9s.1-.8.4-1c.3-.2.6-.4,1-.5.4,0,.9-.1,1.4-.1,0-.4,0-.8.1-1.1,0-.4.1-.8.3-1.1.1-.3.3-.6.6-.8.2-.2.5-.3.9-.3s.9.2,1.1.5c.2.3.4.7.4,1.3,0,.5,0,1.1,0,1.6.6,0,1.2,0,1.6,0,.5,0,.9.2,1.1.4.3.2.4.5.4,1s-.2.8-.5,1c-.3.2-.7.4-1.2.5-.5,0-1,.1-1.6.1,0,.2,0,.5,0,.7v.8c0,.7,0,1.2.1,1.4,0,.2.2.4.3.4.1,0,.3,0,.5.1.2,0,.4,0,.7.1.3,0,.5.2.6.5.2.2.2.5.2.9s-.2.7-.6,1c-.4.2-1,.3-1.7.3Z"/>
  <path class="cls-7" d="M75,269.3c-.6,0-1.1-.2-1.5-.6-.4-.4-.6-.9-.6-1.6s0-.8.3-1.1c.2-.3.4-.6.8-.8.3-.2.7-.3,1.1-.3s.7,0,1,.3c.3.2.6.5.8.8.2.3.3.7.3,1.1s0,.8-.3,1.1c-.2.3-.5.6-.8.8-.3.2-.7.3-1,.3ZM75,278c-.5,0-.8-.1-1.1-.4-.2-.3-.4-.7-.5-1.3,0-.6-.1-1.3-.1-2.2,0-.9,0-1.6.1-2.2,0-.6.2-1,.5-1.3.3-.3.6-.4,1.1-.4s.8.1,1.1.4c.2.3.4.7.5,1.3,0,.6.1,1.3.1,2.2,0,.9,0,1.6-.1,2.2,0,.6-.2,1-.5,1.3-.2.3-.6.4-1.1.4Z"/>
  <path class="cls-7" d="M82.6,278c-.2,0-.5,0-.8,0-.3,0-.6-.2-1-.5-.3-.2-.6-.6-.9-1-.3-.5-.7-1-1-1.6-.3-.6-.6-1.2-.8-1.8-.2-.6-.3-1.2-.3-1.7s.1-.9.4-1.3c.3-.3.6-.5,1-.5s.8.1,1.1.4c.3.3.6.7.8,1.1.2.5.4,1,.6,1.5.2.6.4,1.1.6,1.7.2-.6.4-1.1.6-1.7.2-.6.4-1.1.7-1.5.3-.5.5-.8.8-1.1.3-.3.7-.4,1.1-.4.3,0,.7.2.9.4.3.3.4.7.4,1.2s-.1,1.2-.3,1.8c-.2.6-.4,1.2-.8,1.7-.3.5-.6,1-.9,1.4-.3.4-.5.7-.7.9-.3.3-.6.5-.9.7-.3.2-.7.3-1,.3Z"/>
  <path class="cls-7" d="M92.5,278c-.9,0-1.7-.2-2.4-.5-.7-.4-1.2-.8-1.6-1.5-.4-.6-.6-1.3-.6-2.1s.2-1.5.6-2.1c.4-.7.9-1.2,1.5-1.6.7-.4,1.4-.6,2.3-.6s1.5.2,2.1.5c.6.3,1,.7,1.3,1.2.3.5.5,1,.5,1.6s-.1,1-.4,1.4c-.3.3-.6.6-1,.8-.4.2-.8.3-1.3.4-.4,0-.9,0-1.3,0s-.8-.1-1.1-.2c.2.3.5.6.8.7.3.1.7.2,1,.2.4,0,.7,0,1-.1.4,0,.7,0,.9,0,.2.1.4.3.4.6,0,.2,0,.4-.2.6s-.5.4-.9.5c-.4.2-1,.2-1.8.2ZM91.3,273c.1.2.3.3.5.4.2,0,.5,0,.7,0,.2,0,.4,0,.6-.2.2-.1.3-.3.3-.5s0-.4-.3-.5c-.2-.2-.4-.3-.8-.3s-.6.1-.8.3c-.2.2-.3.4-.3.6Z"/>
  <path class="cls-7" d="M4.7,170.4c-.6,0-1.2,0-1.7-.2-.6-.1-1.1-.3-1.5-.5-.5-.2-.8-.5-1.1-.8-.3-.3-.4-.7-.4-1.1s.1-.9.4-1.2c.3-.3.7-.4,1.1-.4s.7,0,1,.2c.3.1.5.3.7.4.2.1.5.2.7.2.4,0,.6-.2.6-.5s-.1-.3-.4-.4c-.3-.1-.6-.3-1.1-.4-.4-.2-.9-.4-1.3-.7-.7-.4-1.2-.9-1.4-1.3-.3-.5-.4-1.1-.4-1.8s.2-1.4.6-2c.4-.6,1-1.1,1.8-1.5.8-.4,1.6-.6,2.5-.6s1.7.1,2.4.4c.7.3,1.3.6,1.7,1.1.4.5.6,1,.6,1.6s0,.9-.3,1.1c-.2.3-.4.5-.7.6-.3.1-.6.2-.9.2-.4,0-.7,0-.9,0-.2,0-.4-.1-.5-.1-.1,0-.2-.1-.4-.1-.1,0-.3,0-.6,0s-.3,0-.4.1c-.1,0-.2.2-.2.4s.1.3.4.4c.3,0,.5.2.8.3,1.1.4,1.9.8,2.4,1.4.6.5.8,1.2.8,2s-.4,1.8-1.2,2.4c-.8.6-2,.9-3.4.9Z"/>
  <path class="cls-7" d="M16.7,170.4c-.6,0-1-.2-1.1-.6-.2-.4-.3-1-.3-1.7s0-1.1,0-1.5c0-.4-.2-.6-.5-.6s-.4,0-.5.3c0,.2-.2.4-.2.7,0,.3,0,.7,0,1.1s0,.8,0,1.1c0,.3-.2.6-.4.8-.2.2-.5.3-.9.3s-.8-.1-1-.4c-.3-.3-.4-.7-.6-1.2-.1-.5-.2-1-.3-1.6,0-.6,0-1.2,0-1.7,0-1,0-1.8.3-2.5.2-.7.6-1.1,1.1-1.3.4-.1.7-.1,1,0,.3,0,.5.3.6.5.1,0,.3-.1.4-.2.2,0,.4-.1.8-.1s.7,0,1.1.3c.3.2.6.4.8.8.3-.3.6-.6.9-.8.3-.2.8-.3,1.3-.3.8,0,1.4.2,1.9.7.5.4,1,1,1.3,1.8s.4,1.6.4,2.5,0,1.1-.2,1.7c0,.5-.3,1-.5,1.3-.3.3-.6.5-1.1.5s-.7,0-.9-.3c-.2-.2-.3-.5-.4-.8,0-.3,0-.7,0-1.1s0-.8,0-1.1c0-.3,0-.5-.1-.7,0-.2-.3-.3-.5-.3s-.3,0-.4.3c0,.2-.1.4-.1.7,0,.3,0,.7,0,1.1,0,.7-.1,1.3-.3,1.7-.2.4-.6.6-1.1.6Z"/>
  <path class="cls-7" d="M25.6,161.7c-.6,0-1.1-.2-1.5-.6-.4-.4-.6-.9-.6-1.6s0-.8.3-1.1c.2-.3.4-.6.8-.8.3-.2.7-.3,1.1-.3s.7,0,1,.3c.3.2.6.5.8.8.2.3.3.7.3,1.1s0,.8-.3,1.1c-.2.3-.5.6-.8.8-.3.2-.7.3-1,.3ZM25.6,170.4c-.5,0-.8-.1-1.1-.4-.2-.3-.4-.7-.5-1.3,0-.6-.1-1.3-.1-2.2,0-.9,0-1.6.1-2.2,0-.6.2-1,.5-1.3.3-.3.6-.4,1.1-.4s.8.1,1.1.4c.2.3.4.7.5,1.3,0,.6.1,1.3.1,2.2,0,.9,0,1.6-.1,2.2,0,.6-.2,1-.5,1.3-.2.3-.6.4-1.1.4Z"/>
  <path class="cls-7" d="M30.7,170.3c-.6,0-1.1-.2-1.4-.7-.3-.5-.5-1.1-.6-2.1,0-.9-.1-2.1-.1-3.5s0-1.8,0-2.5c0-.8.1-1.4.2-2,.1-.6.3-1,.6-1.3.3-.3.7-.5,1.2-.5s.9.2,1.2.5c.3.3.5.7.6,1.3.1.6.2,1.2.3,2,0,.8,0,1.6,0,2.5,0,2.1-.1,3.7-.4,4.7-.3,1-.9,1.5-1.7,1.5Z"/>
  <path class="cls-7" d="M38.2,170.4c-.9,0-1.7-.2-2.4-.5-.7-.4-1.2-.8-1.6-1.5-.4-.6-.6-1.3-.6-2.1s.2-1.5.6-2.1c.4-.7.9-1.2,1.5-1.6.7-.4,1.4-.6,2.3-.6s1.5.2,2.1.5c.6.3,1,.7,1.3,1.2.3.5.5,1,.5,1.6s-.1,1-.4,1.4c-.3.3-.6.6-1,.8-.4.2-.8.3-1.3.4-.4,0-.9,0-1.3,0s-.8-.1-1.1-.2c.2.3.5.6.8.7.3.1.7.2,1,.2.4,0,.7,0,1-.1.4,0,.7,0,.9,0,.2.1.4.3.4.6,0,.2,0,.4-.2.6s-.5.4-.9.5c-.4.2-1,.2-1.8.2ZM37.1,165.4c.1.2.3.3.5.4.2,0,.5,0,.7,0,.2,0,.4,0,.6-.2.2-.1.3-.3.3-.5s0-.4-.3-.5c-.2-.2-.4-.3-.8-.3s-.6.1-.8.3c-.2.2-.3.4-.3.6Z"/>
  <path class="cls-7" d="M45.9,173c-.4,0-.8,0-1.1-.1-.3,0-.6-.3-.8-.5-.2-.2-.3-.5-.3-.9s.2-.7.6-1c.4-.2.8-.3,1.3-.3.5,0,.9,0,1.2,0,.3,0,.5-.2.7-.4-1.1,0-2-.2-2.6-.5-.7-.3-1.1-.8-1.4-1.5-.3-.7-.4-1.6-.4-2.7s0-1.1.2-1.6c.1-.5.3-.9.6-1.2.3-.3.6-.4,1.1-.4s1,.2,1.3.5c.3.3.4.7.4,1.2s0,.8,0,1.2c0,.4,0,.7,0,1,0,.3.1.5.3.7.2.2.4.3.7.3s.6,0,.7-.3c.2-.2.3-.4.3-.7,0-.3,0-.6,0-1,0-.4,0-.8,0-1.2s.1-.9.4-1.2c.3-.3.7-.5,1.3-.5s.8.1,1.1.4c.3.3.5.7.6,1.2.1.5.2,1,.2,1.6,0,1-.1,2-.3,2.9-.2.9-.6,1.8-1,2.5-.5.8-1.1,1.3-1.9,1.8-.8.4-1.7.7-2.9.7Z"/>
  <path class="cls-7" d="M30.9,59.6c-1.1,0-2.2-.2-3.1-.7-.9-.5-1.7-1.2-2.2-2.1-.5-.9-.8-2.1-.8-3.5s.1-1.6.4-2.4c.3-.8.7-1.4,1.2-2,.5-.6,1.1-1,1.8-1.4.7-.3,1.5-.5,2.3-.5s2,.2,2.8.6c.8.4,1.4.9,1.9,1.6.4.7.7,1.4.7,2.3s0,.6-.2.9-.3.5-.6.7c-.3.2-.6.3-1,.3s-.7,0-.9-.2c-.2-.1-.4-.3-.6-.4-.2-.2-.3-.4-.5-.5-.2-.2-.3-.3-.6-.4-.2-.1-.5-.2-.9-.2s-.7,0-1,.3c-.3.2-.6.5-.8.8-.2.3-.3.7-.3,1.1,0,.6.2,1.2.5,1.6.3.5.8.7,1.4.7s.8,0,1.1-.2c.3-.2.5-.3.7-.5.2-.2.4-.3.6-.5.2-.2.5-.2.9-.2.5,0,.9.2,1.2.5.3.3.4.8.4,1.3,0,.5-.3,1-.7,1.5-.4.5-.9.8-1.6,1.1-.7.3-1.4.4-2.3.4Z"/>
  <path class="cls-7" d="M41.3,59.7c-.9,0-1.7-.2-2.3-.5s-1.2-.9-1.6-1.5c-.4-.7-.6-1.4-.6-2.2,0-.8.2-1.5.5-2.1.4-.6.9-1.1,1.6-1.5.7-.4,1.5-.6,2.3-.6.8,0,1.6.2,2.3.5.7.4,1.2.9,1.6,1.5.4.6.6,1.4.6,2.2,0,.8-.2,1.5-.6,2.1-.4.6-.9,1.1-1.6,1.5-.7.4-1.5.6-2.3.6ZM41.4,57.1c.3,0,.6-.1.8-.4.3-.3.4-.5.4-.9s-.1-.6-.4-.9c-.2-.3-.5-.4-.8-.4s-.6.1-.9.4-.4.5-.4.9.1.6.4.9c.3.3.5.4.9.4Z"/>
  <path class="cls-7" d="M53.8,59.7c-.5,0-.8-.1-1-.4-.2-.3-.3-.6-.4-1,0-.4,0-.8,0-1.3,0-.6,0-1.2-.3-1.5-.2-.4-.5-.6-.9-.6s-.7.2-.9.6c-.2.4-.3.9-.3,1.5s0,.8,0,1.2c0,.4-.1.7-.3,1-.2.3-.5.4-1,.4s-.7-.1-.9-.4c-.2-.3-.4-.6-.6-1.1-.1-.4-.2-.9-.3-1.4,0-.5,0-1,0-1.5s0-1,0-1.5.1-1,.3-1.4c.1-.4.3-.8.5-1,.3-.3.6-.4.9-.4.7,0,1.1.3,1.3.9.2-.2.4-.3.7-.4.3-.1.7-.2,1.1-.2.9,0,1.7.2,2.3.7.6.5,1,1.1,1.3,1.9.3.8.4,1.8.4,2.8,0,.6,0,1.1-.2,1.5,0,.4-.3.8-.5,1.1-.2.3-.6.4-1,.4Z"/>
  <path class="cls-7" d="M59.9,59.7c-1.1,0-1.9-.2-2.5-.5-.6-.3-.9-.8-.9-1.3s.1-.7.4-.9c.3-.2.6-.3.9-.3s.5,0,.6.1c.1,0,.3.2.4.3.1,0,.2.1.4.1.3,0,.4,0,.4-.3s-.1-.4-.4-.5c-.3-.1-.6-.3-1-.4-.6-.3-1-.6-1.2-1-.3-.4-.4-.8-.4-1.1s.2-.9.5-1.3c.3-.4.8-.7,1.4-1,.6-.3,1.3-.4,2.1-.4s1.3,0,1.9.3c.6.2,1,.4,1.3.8.3.3.5.7.5,1.1s-.1.7-.4.9c-.2.2-.5.3-.9.3s-.4,0-.5,0c-.1,0-.2-.1-.3-.2,0,0-.2-.1-.4-.1s-.2,0-.3.1c0,0-.1.1-.1.2s0,.2,0,.2c0,0,.2.1.3.2.4.1.7.3,1.1.5.4.2.7.4.9.7.2.3.4.7.4,1.1,0,.8-.4,1.4-1.1,1.8-.7.4-1.7.7-2.9.7Z"/>
  <path class="cls-7" d="M67,51c-.6,0-1.1-.2-1.5-.6-.4-.4-.6-.9-.6-1.6s0-.8.3-1.1c.2-.3.4-.6.8-.8.3-.2.7-.3,1.1-.3s.7,0,1,.3c.3.2.6.5.8.8.2.3.3.7.3,1.1s0,.8-.3,1.1c-.2.3-.5.6-.8.8-.3.2-.7.3-1,.3ZM67,59.7c-.5,0-.8-.1-1.1-.4-.2-.3-.4-.7-.5-1.3,0-.6-.1-1.3-.1-2.2,0-.9,0-1.6.1-2.2,0-.6.2-1,.5-1.3.3-.3.6-.4,1.1-.4s.8.1,1.1.4c.2.3.4.7.5,1.3,0,.6.1,1.3.1,2.2,0,.9,0,1.6-.1,2.2,0,.6-.2,1-.5,1.3-.2.3-.6.4-1.1.4Z"/>
  <path class="cls-7" d="M73.5,59.7c-1.1,0-1.9-.2-2.5-.5-.6-.3-.9-.8-.9-1.3s.1-.7.4-.9c.3-.2.6-.3.9-.3s.5,0,.6.1c.1,0,.3.2.4.3.1,0,.2.1.4.1.3,0,.4,0,.4-.3s-.1-.4-.4-.5c-.3-.1-.6-.3-1-.4-.6-.3-1-.6-1.2-1-.3-.4-.4-.8-.4-1.1s.2-.9.5-1.3c.3-.4.8-.7,1.4-1,.6-.3,1.3-.4,2.1-.4s1.3,0,1.9.3c.6.2,1,.4,1.3.8.3.3.5.7.5,1.1s-.1.7-.4.9c-.2.2-.5.3-.9.3s-.4,0-.5,0c-.1,0-.2-.1-.3-.2,0,0-.2-.1-.4-.1s-.2,0-.3.1c0,0-.1.1-.1.2s0,.2,0,.2c0,0,.2.1.3.2.4.1.7.3,1.1.5.4.2.7.4.9.7.2.3.4.7.4,1.1,0,.8-.4,1.4-1.1,1.8-.7.4-1.7.7-2.9.7Z"/>
  <path class="cls-7" d="M84.1,59.7c-.4,0-.8,0-1.3-.3-.4-.2-.8-.4-1.2-.7-.3-.3-.6-.7-.7-1.2-.1-.3-.2-.7-.3-1.1,0-.4,0-.9-.1-1.4,0-.5,0-1,0-1.5-.5,0-.9,0-1.3-.1-.4,0-.8-.2-1-.4-.3-.2-.4-.5-.4-.9s.1-.8.4-1c.3-.2.6-.4,1-.5.4,0,.9-.1,1.4-.1,0-.4,0-.8.1-1.1,0-.4.1-.8.3-1.1.1-.3.3-.6.6-.8.2-.2.5-.3.9-.3s.9.2,1.1.5c.2.3.4.7.4,1.3,0,.5,0,1.1,0,1.6.6,0,1.2,0,1.6,0,.5,0,.9.2,1.1.4.3.2.4.5.4,1s-.2.8-.5,1c-.3.2-.7.4-1.2.5-.5,0-1,.1-1.6.1,0,.2,0,.5,0,.7v.8c0,.7,0,1.2.1,1.4,0,.2.2.4.3.4.1,0,.3,0,.5.1.2,0,.4,0,.7.1.3,0,.5.2.6.5.2.2.2.5.2.9s-.2.7-.6,1c-.4.2-1,.3-1.7.3Z"/>
  <path class="cls-7" d="M92.7,59.7c-.9,0-1.7-.2-2.4-.5-.7-.4-1.2-.8-1.6-1.5-.4-.6-.6-1.3-.6-2.1s.2-1.5.6-2.1c.4-.7.9-1.2,1.5-1.6.7-.4,1.4-.6,2.3-.6s1.5.2,2.1.5c.6.3,1,.7,1.3,1.2.3.5.5,1,.5,1.6s-.1,1-.4,1.4c-.3.3-.6.6-1,.8-.4.2-.8.3-1.3.4-.4,0-.9,0-1.3,0s-.8-.1-1.1-.2c.2.3.5.6.8.7.3.1.7.2,1,.2.4,0,.7,0,1-.1.4,0,.7,0,.9,0,.2.1.4.3.4.6,0,.2,0,.4-.2.6s-.5.4-.9.5c-.4.2-1,.2-1.8.2ZM91.5,54.7c.1.2.3.3.5.4.2,0,.5,0,.7,0,.2,0,.4,0,.6-.2.2-.1.3-.3.3-.5s0-.4-.3-.5c-.2-.2-.4-.3-.8-.3s-.6.1-.8.3c-.2.2-.3.4-.3.6Z"/>
  <path class="cls-7" d="M104.4,59.7c-.5,0-.8-.1-1-.4-.2-.3-.3-.6-.4-1,0-.4,0-.8,0-1.3,0-.6,0-1.2-.3-1.5-.2-.4-.5-.6-.9-.6s-.7.2-.9.6c-.2.4-.3.9-.3,1.5s0,.8,0,1.2c0,.4-.1.7-.3,1-.2.3-.5.4-1,.4s-.7-.1-.9-.4c-.2-.3-.4-.6-.6-1.1-.1-.4-.2-.9-.3-1.4,0-.5,0-1,0-1.5s0-1,0-1.5.1-1,.3-1.4c.1-.4.3-.8.5-1,.3-.3.6-.4.9-.4.7,0,1.1.3,1.3.9.2-.2.4-.3.7-.4.3-.1.7-.2,1.1-.2.9,0,1.7.2,2.3.7.6.5,1,1.1,1.3,1.9.3.8.4,1.8.4,2.8,0,.6,0,1.1-.2,1.5,0,.4-.3.8-.5,1.1-.2.3-.6.4-1,.4Z"/>
  <path class="cls-7" d="M112.6,59.7c-.4,0-.8,0-1.3-.3-.4-.2-.8-.4-1.2-.7-.3-.3-.6-.7-.7-1.2-.1-.3-.2-.7-.3-1.1,0-.4,0-.9-.1-1.4,0-.5,0-1,0-1.5-.5,0-.9,0-1.3-.1-.4,0-.8-.2-1-.4-.3-.2-.4-.5-.4-.9s.1-.8.4-1c.3-.2.6-.4,1-.5.4,0,.9-.1,1.4-.1,0-.4,0-.8.1-1.1,0-.4.1-.8.3-1.1.1-.3.3-.6.6-.8.2-.2.5-.3.9-.3s.9.2,1.1.5c.2.3.4.7.4,1.3,0,.5,0,1.1,0,1.6.6,0,1.2,0,1.6,0,.5,0,.9.2,1.1.4.3.2.4.5.4,1s-.2.8-.5,1c-.3.2-.7.4-1.2.5-.5,0-1,.1-1.6.1,0,.2,0,.5,0,.7v.8c0,.7,0,1.2.1,1.4,0,.2.2.4.3.4.1,0,.3,0,.5.1.2,0,.4,0,.7.1.3,0,.5.2.6.5.2.2.2.5.2.9s-.2.7-.6,1c-.4.2-1,.3-1.7.3Z"/>
</svg>